 <svg  version="1.0" xmlns="http://www.w3.org/2000/svg"  width="300.000000pt" height="300.000000pt" viewBox="0 0 300.000000 300.000000"  preserveAspectRatio="xMidYMid meet">  <g transform="translate(0.000000,300.000000) scale(0.050000,-0.050000)" fill="#ffffff" stroke="none"> <path d="M2590 5969 c-2444 -375 -3445 -3293 -1733 -5053 1741 -1792 4747 -800 5112 1687 283 1925 -1459 3660 -3379 3366z m805 -299 c2174 -330 3068 -2967 1541 -4542 -1560 -1607 -4270 -738 -4606 1477 -270 1777 1288 3335 3065 3065z"/> <path d="M2810 4698 c-583 -60 -1109 -647 -891 -994 146 -232 422 -160 592 155 149 274 252 336 529 316 257 -18 394 -169 376 -413 -12 -160 -79 -248 -369 -483 -320 -261 -398 -364 -421 -560 -48 -403 410 -515 585 -144 92 195 93 196 361 397 475 355 620 638 528 1031 -109 468 -651 760 -1290 695z"/> <path d="M2756 1999 c-346 -183 -209 -705 185 -702 381 3 500 529 159 703 -100 51 -246 51 -344 -1z"/> </g> </svg> 