 <svg  version="1.0" xmlns="http://www.w3.org/2000/svg"  width="1350.000000pt" height="1350.000000pt" viewBox="0 0 1350.000000 1350.000000"  preserveAspectRatio="xMidYMid meet">  <g transform="translate(0.000000,1350.000000) scale(0.100000,-0.100000)" fill="#ffffff" stroke="none"> <path d="M6187 12490 c-77 -8 -94 -18 -79 -47 11 -19 22 -129 42 -425 8 -115 8 -163 0 -178 -16 -30 3 -34 155 -27 141 6 163 12 223 64 29 26 32 34 32 83 0 30 -7 116 -15 190 -8 74 -15 167 -15 206 0 66 -2 71 -30 92 -16 12 -33 22 -38 22 -5 0 -15 7 -22 15 -14 16 -122 19 -253 5z m203 -135 c13 -16 38 -381 26 -392 -11 -11 -110 -23 -119 -14 -9 9 -36 265 -37 349 0 45 3 54 23 62 35 14 93 12 107 -5z"/> <path d="M7013 12489 c-6 -6 -22 -17 -35 -23 -21 -10 -24 -22 -35 -121 -16 -149 -33 -434 -26 -451 3 -7 25 -27 49 -43 39 -26 57 -30 149 -36 103 -7 104 -7 147 22 l43 29 16 164 c9 91 19 215 21 275 l5 110 -37 36 c-21 20 -52 39 -70 43 -54 10 -215 7 -227 -5z m185 -137 c17 -17 17 -26 6 -138 -7 -65 -13 -146 -13 -180 -1 -33 -6 -65 -13 -72 -22 -22 -122 -12 -131 12 -3 7 1 70 9 142 7 71 14 152 14 180 0 27 5 55 12 62 19 19 95 15 116 -6z"/> <path d="M7465 12460 c-4 -6 -1 -17 5 -25 10 -11 10 -30 0 -82 -6 -38 -18 -108 -26 -158 -9 -49 -22 -126 -29 -170 -8 -44 -17 -100 -20 -125 -3 -24 -13 -53 -22 -63 -28 -30 2 -48 82 -50 l67 -2 2 75 c2 41 10 92 19 113 14 33 20 37 39 31 12 -3 47 -10 78 -14 30 -5 64 -11 76 -15 22 -7 21 -10 36 110 3 16 -5 21 -47 27 -27 4 -72 13 -100 20 -49 13 -50 14 -47 48 10 136 19 147 103 125 30 -8 69 -15 88 -15 19 0 42 -7 52 -16 30 -27 47 -11 54 50 9 67 3 86 -27 86 -21 0 -79 10 -268 46 -90 17 -107 17 -115 4z"/> <path d="M5575 12401 c-34 -7 -44 -34 -21 -57 9 -8 16 -30 16 -48 0 -19 6 -64 14 -102 8 -38 21 -114 31 -169 9 -55 23 -135 32 -177 15 -74 15 -79 -2 -98 -36 -40 0 -38 273 16 40 8 88 14 107 14 52 0 65 20 58 87 -3 32 -9 62 -13 66 -3 4 -26 -1 -51 -12 -24 -12 -60 -21 -79 -21 -19 0 -60 -7 -89 -15 -38 -10 -59 -11 -67 -4 -13 11 -22 48 -49 214 -9 55 -23 135 -31 178 -8 43 -12 92 -9 108 l7 29 -49 -1 c-26 -1 -61 -4 -78 -8z"/> <path d="M5235 12315 c-27 -8 -68 -19 -90 -25 -102 -25 -135 -35 -135 -43 0 -4 9 -18 20 -30 12 -12 23 -33 26 -47 5 -27 29 -118 49 -190 7 -25 20 -74 30 -110 10 -36 24 -87 33 -115 9 -27 16 -74 16 -102 0 -62 9 -65 91 -34 57 21 62 34 41 86 -24 56 -20 83 20 132 49 59 70 55 94 -17 11 -30 19 -65 20 -76 0 -12 8 -32 18 -44 17 -21 21 -22 74 -11 65 14 77 31 48 68 -11 14 -20 36 -20 48 0 12 -7 39 -15 58 -8 20 -15 48 -15 63 0 16 -11 37 -30 54 -20 18 -27 31 -19 35 11 8 8 49 -9 120 -37 150 -35 146 -72 165 -52 26 -117 32 -175 15z m101 -151 c32 -76 30 -88 -22 -148 -49 -58 -74 -70 -74 -37 0 10 -6 37 -14 59 -8 22 -17 60 -21 84 l-7 44 49 16 c68 23 72 22 89 -18z"/> <path d="M8330 12259 c0 -19 -12 -65 -26 -104 -14 -38 -29 -83 -34 -100 -5 -16 -18 -55 -30 -85 -12 -30 -25 -68 -30 -85 -21 -75 -63 -181 -76 -191 -23 -19 -16 -41 19 -54 17 -6 49 -19 70 -28 44 -18 51 -13 53 36 1 20 15 75 32 122 17 47 37 102 45 123 8 21 18 38 23 38 9 0 28 -96 42 -210 4 -35 12 -66 17 -68 6 -1 55 40 110 92 56 53 103 91 108 86 5 -5 4 -18 -3 -30 -6 -12 -22 -54 -35 -94 -44 -130 -52 -150 -69 -162 -25 -19 -19 -31 27 -49 23 -10 56 -24 72 -30 41 -17 52 -11 47 27 -2 18 8 62 23 102 15 39 31 84 35 100 5 17 25 75 45 130 19 55 45 127 56 160 11 33 27 67 34 75 27 30 20 41 -35 60 -30 11 -62 19 -71 20 -9 0 -65 -47 -125 -105 -60 -58 -116 -104 -124 -102 -11 1 -17 20 -21 67 -6 81 -29 220 -38 238 -7 15 -67 40 -113 49 -26 5 -28 3 -28 -28z"/> <path d="M4755 12164 c-22 -8 -54 -19 -71 -25 -48 -14 -94 -50 -117 -90 -20 -35 -20 -39 -5 -75 28 -69 46 -117 78 -209 65 -186 91 -248 113 -267 24 -22 122 -24 169 -4 18 8 56 23 83 34 38 15 58 31 82 67 23 35 30 53 23 65 -10 18 -22 50 -65 175 -15 44 -32 84 -36 90 -5 5 -9 17 -9 27 0 9 -6 32 -14 50 -8 18 -25 59 -37 91 -13 32 -31 63 -39 67 -34 18 -114 20 -155 4z m73 -137 c9 -11 24 -47 52 -127 5 -14 18 -50 30 -80 12 -30 29 -77 38 -104 16 -48 15 -49 -6 -66 -45 -37 -122 -33 -122 6 0 7 -6 28 -14 46 -8 18 -21 52 -30 76 -9 23 -23 61 -32 85 -9 23 -22 57 -30 76 -20 46 -10 67 39 84 55 19 63 19 75 4z"/> <path d="M8997 12043 c-4 -3 -7 -19 -7 -35 0 -15 -22 -74 -49 -130 -27 -57 -74 -156 -105 -221 -31 -64 -56 -121 -56 -126 0 -5 -13 -23 -30 -41 -34 -36 -38 -58 -12 -67 22 -7 122 -53 238 -109 50 -24 98 -44 107 -44 10 0 26 21 42 53 31 67 31 77 0 77 -14 0 -69 21 -121 46 -85 41 -94 48 -88 67 9 33 33 67 46 67 16 0 120 -50 140 -67 26 -23 44 -10 74 53 22 46 24 58 13 65 -8 5 -19 9 -25 9 -5 0 -29 9 -52 20 -23 11 -53 25 -67 30 -33 12 -32 43 1 106 41 79 38 79 141 28 51 -24 97 -53 103 -64 6 -11 16 -17 24 -14 19 7 68 107 61 125 -3 8 -29 25 -58 38 -96 44 -242 112 -269 127 -29 15 -41 17 -51 7z"/> <path d="M4320 11988 c-71 -39 -69 -36 -39 -61 30 -25 143 -247 137 -270 -2 -12 -23 -1 -83 44 -44 33 -91 69 -103 80 -45 39 -52 23 -52 -131 0 -132 -1 -140 -18 -129 -27 17 -145 265 -137 289 8 26 4 26 -76 -11 -82 -38 -95 -59 -48 -81 3 -2 58 -109 123 -238 65 -129 122 -239 127 -244 5 -6 9 -27 9 -48 0 -47 7 -47 85 -4 l60 33 3 161 c2 110 6 162 14 162 6 0 64 -40 129 -90 65 -49 125 -90 133 -90 20 0 111 47 126 65 10 12 8 16 -10 23 -17 6 -56 73 -151 263 -71 140 -129 266 -129 282 0 36 -27 35 -100 -5z"/> <path d="M9480 11788 c0 -31 -291 -510 -313 -516 -25 -6 -18 -44 11 -58 13 -6 29 -17 35 -23 6 -6 23 -11 39 -11 24 0 35 13 100 120 40 66 79 132 87 146 9 18 16 23 24 15 7 -7 5 -67 -8 -200 -19 -204 -19 -211 30 -232 11 -5 34 -18 50 -28 40 -26 42 -26 48 13 7 44 269 482 310 518 17 15 29 29 26 31 -36 29 -104 67 -120 67 -11 0 -24 -10 -29 -22 -10 -23 -15 -31 -60 -103 -14 -22 -29 -47 -33 -55 -4 -8 -16 -28 -27 -45 -11 -16 -23 -38 -26 -47 -4 -10 -13 -18 -22 -18 -12 0 -14 10 -9 58 3 31 12 119 18 195 l12 137 -23 25 c-13 14 -29 25 -36 25 -6 0 -17 7 -24 15 -7 8 -23 15 -36 15 -18 0 -24 -6 -24 -22z"/> <path d="M6697 10778 c-77 -163 -243 -344 -487 -529 -103 -78 -302 -212 -350 -236 -8 -4 -47 -25 -85 -48 -39 -22 -92 -51 -119 -65 -136 -70 -256 -230 -307 -410 -25 -86 -27 -351 -3 -467 32 -159 98 -374 154 -498 7 -16 24 -55 38 -85 13 -30 32 -73 43 -96 36 -75 20 -73 -63 9 -296 294 -552 471 -808 557 -58 20 -181 40 -245 40 -137 0 -321 -65 -410 -146 -167 -152 -500 -406 -585 -447 -8 -4 -37 -21 -65 -37 -196 -118 -422 -199 -556 -200 -36 0 -69 -3 -72 -7 -4 -3 25 -39 64 -80 71 -75 112 -133 168 -236 90 -167 178 -424 235 -692 38 -180 46 -222 46 -245 0 -32 34 -185 52 -230 83 -217 291 -371 598 -443 240 -57 711 -58 1015 -2 45 8 83 11 88 6 9 -9 3 -13 -98 -65 -27 -14 -77 -41 -110 -61 -33 -19 -69 -39 -80 -45 -11 -6 -32 -18 -47 -28 -15 -9 -54 -33 -87 -54 -197 -120 -456 -352 -549 -491 -115 -171 -152 -278 -152 -442 0 -134 14 -182 104 -367 64 -132 120 -260 136 -308 5 -14 18 -50 30 -80 11 -30 30 -84 41 -120 12 -36 27 -83 34 -105 14 -45 38 -151 60 -273 20 -107 20 -284 0 -348 -19 -62 -19 -84 0 -84 8 0 15 3 15 8 0 12 90 61 175 95 263 104 760 131 1227 68 68 -9 223 9 288 33 215 81 390 278 510 576 12 30 28 70 36 88 8 18 14 39 14 47 0 8 6 29 14 47 30 70 97 368 111 493 9 87 41 87 50 0 14 -125 81 -423 111 -493 8 -18 14 -39 14 -47 0 -8 6 -29 14 -47 8 -18 24 -58 36 -88 120 -298 295 -495 510 -576 65 -24 220 -42 288 -33 467 63 964 36 1227 -68 85 -34 175 -83 175 -95 0 -5 7 -8 15 -8 19 0 19 22 0 84 -20 64 -19 249 0 341 8 38 15 81 15 94 0 13 7 49 16 80 9 31 22 79 30 106 21 74 50 163 74 225 12 30 25 66 30 80 16 48 72 176 136 308 90 185 104 233 104 367 0 164 -37 271 -152 442 -93 139 -352 371 -549 491 -33 21 -72 45 -87 54 -15 10 -36 22 -47 28 -11 6 -47 26 -80 45 -33 20 -82 47 -110 61 -101 52 -107 56 -98 65 5 5 43 2 88 -6 220 -41 672 -54 860 -27 162 24 230 42 353 92 191 77 337 216 400 380 18 45 52 198 52 230 0 46 64 338 106 485 92 322 203 544 345 691 38 39 66 74 62 77 -3 4 -36 7 -72 7 -134 1 -360 82 -556 200 -27 16 -57 33 -65 37 -85 41 -418 295 -585 447 -56 50 -186 112 -275 131 -336 69 -725 -122 -1188 -582 -88 -87 -99 -86 -56 6 14 31 34 74 43 96 10 22 24 54 31 70 56 126 122 340 154 498 24 116 22 381 -3 467 -51 180 -171 340 -307 410 -27 14 -80 43 -119 65 -38 23 -77 44 -85 48 -90 45 -425 284 -519 371 -154 144 -264 280 -318 394 -18 39 -38 72 -43 72 -5 0 -25 -33 -43 -72z m64 -459 c4 -8 10 -21 13 -29 12 -32 90 -138 148 -201 61 -67 208 -187 321 -262 137 -90 166 -108 193 -123 131 -70 165 -92 203 -128 57 -54 105 -129 133 -208 19 -54 22 -83 22 -208 0 -157 -9 -207 -70 -395 -107 -326 -359 -765 -678 -1180 -69 -90 -93 -115 -108 -115 -4 0 -9 414 -10 919 l-3 919 -30 44 c-43 61 -95 88 -170 88 -75 0 -127 -27 -170 -88 l-30 -44 -3 -899 c-2 -748 -5 -899 -16 -899 -31 0 -287 360 -456 640 -85 143 -240 445 -240 469 0 7 -7 25 -14 39 -17 32 -67 187 -92 287 -26 104 -25 340 1 415 29 82 77 159 132 211 41 40 75 62 207 133 86 46 308 200 389 269 108 93 132 117 193 197 62 80 84 115 84 133 0 17 21 38 34 34 5 -2 13 -10 17 -18z m-2121 -1768 c198 -48 404 -183 645 -425 150 -150 173 -176 276 -301 165 -202 439 -595 439 -630 0 -12 -49 1 -155 40 -55 20 -111 40 -125 45 -14 5 -50 18 -80 30 -30 12 -86 32 -125 45 -38 13 -95 33 -125 45 -101 38 -135 51 -205 75 -38 13 -95 34 -125 45 -30 12 -66 25 -80 30 -14 5 -50 18 -80 30 -30 11 -86 32 -125 45 -76 26 -119 42 -205 75 -80 31 -138 42 -194 34 -42 -5 -57 -14 -101 -58 -43 -43 -53 -60 -59 -98 -9 -58 0 -113 25 -154 21 -35 72 -77 104 -87 11 -3 45 -15 75 -27 30 -11 74 -28 97 -36 23 -8 79 -28 125 -45 46 -17 94 -34 108 -39 14 -5 50 -18 80 -30 30 -12 69 -25 85 -30 17 -5 55 -18 85 -30 30 -12 66 -25 80 -30 14 -5 50 -18 80 -30 30 -12 69 -25 85 -30 17 -5 55 -18 85 -30 30 -12 66 -25 80 -30 14 -5 50 -18 80 -30 30 -12 69 -25 85 -30 17 -5 55 -18 85 -30 30 -12 66 -25 80 -30 77 -25 161 -63 157 -73 -3 -9 -50 -29 -112 -47 -16 -5 -52 -16 -80 -24 -105 -32 -191 -57 -230 -66 -22 -5 -60 -14 -85 -20 -365 -94 -621 -130 -915 -130 -178 0 -235 4 -316 20 -54 11 -109 24 -121 29 -139 54 -222 105 -282 173 -65 74 -100 156 -120 278 -48 294 -102 488 -189 680 -37 81 -105 184 -151 229 -25 24 -43 48 -40 53 3 4 19 8 35 8 75 0 260 63 386 132 105 57 285 180 373 255 14 11 62 53 108 92 163 139 297 176 482 132z m4450 0 c96 -28 139 -53 232 -132 104 -89 109 -93 188 -154 77 -61 213 -150 293 -193 126 -69 311 -132 386 -132 16 0 32 -4 35 -8 3 -5 -15 -29 -40 -53 -73 -71 -151 -213 -219 -399 -45 -125 -86 -296 -121 -510 -20 -122 -55 -204 -120 -278 -60 -68 -143 -119 -282 -173 -12 -5 -66 -18 -119 -29 -123 -26 -475 -28 -641 -5 -222 31 -381 61 -488 91 -28 8 -59 14 -70 14 -10 0 -39 6 -64 14 -25 8 -74 22 -110 31 -36 10 -83 23 -105 29 -22 7 -67 21 -100 30 -33 10 -75 24 -93 32 -18 8 -41 14 -52 14 -47 0 -30 43 24 59 17 5 56 19 86 31 30 12 69 25 85 30 17 5 55 18 85 30 30 12 66 25 80 30 14 5 50 18 80 30 30 11 87 32 125 45 70 24 104 37 205 75 30 12 87 32 125 45 39 13 95 33 125 45 94 36 133 50 205 75 64 22 99 35 220 81 22 9 50 18 63 21 39 9 109 87 122 134 14 51 6 133 -16 167 -69 106 -174 125 -334 62 -30 -12 -66 -25 -80 -30 -14 -5 -50 -18 -80 -30 -30 -11 -86 -32 -125 -45 -70 -24 -104 -37 -205 -75 -30 -12 -86 -32 -125 -45 -72 -25 -111 -39 -205 -75 -30 -12 -86 -32 -125 -45 -74 -26 -114 -40 -205 -75 -89 -34 -223 -80 -232 -80 -20 0 -1 37 99 186 138 207 283 398 423 559 95 109 326 330 415 396 125 92 121 89 233 145 161 80 299 101 422 65z m-1495 -2387 c150 -50 167 -56 210 -72 75 -27 120 -44 150 -58 17 -7 55 -22 85 -34 203 -81 488 -229 655 -340 197 -132 359 -299 426 -440 42 -89 49 -120 49 -230 0 -118 3 -108 -78 -280 -24 -52 -50 -108 -57 -125 -48 -111 -75 -179 -75 -191 0 -7 -6 -28 -14 -46 -15 -37 -36 -108 -62 -218 -14 -57 -18 -113 -18 -232 0 -145 -4 -176 -21 -148 -6 10 -46 30 -115 57 -151 60 -458 93 -670 73 -63 -6 -176 -13 -252 -17 -117 -5 -143 -3 -190 13 -119 42 -223 124 -298 236 -44 65 -130 239 -130 262 0 8 -6 30 -14 48 -71 169 -130 560 -142 941 -8 254 4 627 20 627 10 0 51 -53 190 -253 23 -32 68 -96 101 -143 33 -46 80 -114 105 -150 25 -36 72 -104 105 -150 33 -46 80 -114 105 -150 25 -36 72 -104 105 -150 33 -46 80 -114 105 -150 105 -154 151 -213 187 -240 35 -26 45 -29 118 -29 77 0 83 2 124 34 72 57 101 161 67 242 -8 19 -34 61 -57 94 -23 33 -90 128 -148 210 -57 83 -154 221 -215 308 -163 232 -214 305 -261 372 -23 33 -70 101 -105 150 -35 50 -76 109 -92 132 -16 23 -33 45 -39 48 -5 4 -9 15 -9 26 0 23 9 22 155 -27z m-1583 30 c4 -3 -18 -40 -48 -82 -29 -42 -74 -106 -98 -142 -25 -36 -72 -103 -105 -150 -33 -47 -81 -114 -105 -150 -25 -36 -72 -103 -105 -150 -33 -47 -82 -116 -109 -155 -27 -38 -77 -110 -112 -160 -246 -349 -260 -372 -260 -432 0 -157 154 -258 294 -192 60 28 54 21 255 310 25 36 75 107 111 158 110 156 247 353 294 421 25 36 71 102 103 147 32 45 106 152 165 236 106 152 130 178 145 154 4 -6 7 -196 7 -422 0 -421 -7 -531 -50 -795 -74 -449 -223 -749 -429 -867 -101 -57 -143 -66 -288 -60 -73 3 -188 11 -257 17 -210 19 -514 -12 -655 -67 -70 -28 -125 -54 -131 -64 -16 -26 -20 6 -20 149 0 118 -4 176 -18 232 -26 109 -46 181 -62 218 -8 18 -14 39 -14 46 0 12 -27 80 -75 191 -7 17 -33 73 -57 125 -81 172 -78 162 -78 280 0 110 7 141 49 230 67 141 229 308 426 440 167 111 452 259 655 340 30 12 69 27 85 34 28 13 60 25 145 57 82 32 306 106 321 108 9 0 18 -2 21 -5z"/> <path d="M1867 9842 c-10 -10 -17 -23 -17 -29 0 -6 -7 -16 -16 -23 -20 -18 -14 -62 11 -75 11 -6 38 -22 60 -36 22 -14 47 -29 55 -32 8 -4 29 -16 45 -27 17 -11 39 -24 50 -29 11 -5 29 -19 40 -31 l20 -23 -70 7 c-38 3 -131 9 -206 13 l-135 6 -32 -52 c-40 -64 -42 -91 -7 -91 22 0 124 -57 395 -219 19 -11 44 -25 56 -30 11 -5 35 -24 53 -42 40 -39 53 -34 89 35 21 40 23 49 11 61 -15 16 -234 147 -263 158 -9 4 -14 11 -11 17 8 12 145 12 280 0 107 -9 129 -4 146 33 5 12 18 36 28 52 22 36 19 45 -19 45 -16 0 -32 5 -35 11 -4 5 -17 15 -28 20 -12 5 -35 18 -52 29 -16 11 -37 23 -45 27 -87 43 -354 211 -358 225 -6 23 -24 23 -45 0z"/> <path d="M11722 9620 c-8 -20 -63 -52 -268 -155 -142 -71 -268 -130 -279 -130 -29 0 -31 -31 -5 -79 36 -66 38 -66 207 -66 119 0 153 -3 153 -13 0 -11 -31 -56 -130 -187 -52 -69 -53 -74 -24 -136 30 -64 50 -76 73 -46 22 30 505 272 542 272 16 0 29 3 29 7 0 14 -65 142 -73 143 -5 0 -23 -11 -40 -24 -18 -13 -54 -34 -82 -47 -27 -13 -72 -36 -98 -51 -46 -27 -87 -36 -87 -20 0 4 36 54 79 112 44 57 77 108 75 112 -3 5 -70 8 -149 8 -79 0 -146 4 -149 9 -8 12 254 141 286 141 15 0 29 4 32 8 5 9 -43 115 -67 147 -15 20 -16 20 -25 -5z"/> <path d="M1566 9304 c-9 -8 -16 -20 -16 -25 0 -5 -20 -51 -44 -102 -89 -187 -106 -228 -101 -238 4 -5 20 -9 38 -9 17 0 59 -13 92 -29 33 -16 85 -40 115 -54 263 -119 338 -156 344 -173 3 -7 10 -14 15 -14 9 0 19 19 76 145 15 33 42 92 60 130 49 103 49 104 -15 137 -70 35 -80 35 -80 -2 0 -31 -71 -193 -90 -205 -6 -3 -26 -1 -45 5 -46 15 -46 46 0 134 19 37 35 71 35 76 0 10 -99 60 -118 60 -7 0 -12 -5 -12 -11 0 -5 -12 -36 -26 -67 -14 -31 -30 -67 -35 -79 -11 -30 -34 -29 -100 5 -85 43 -81 40 -65 70 8 15 28 56 44 92 17 36 37 72 46 79 27 23 18 40 -37 66 -64 30 -61 29 -81 9z"/> <path d="M11960 8938 c-14 -6 -42 -16 -62 -24 -53 -20 -119 -45 -143 -55 -11 -4 -63 -24 -115 -44 -52 -20 -107 -41 -123 -47 -17 -7 -29 -20 -33 -37 -3 -14 -9 -38 -14 -53 -6 -19 -3 -42 11 -80 11 -29 24 -64 29 -78 17 -55 35 -80 71 -105 21 -14 47 -25 56 -25 15 0 162 51 228 79 37 16 149 58 228 87 33 12 53 26 63 45 18 36 18 120 -1 145 -8 10 -15 28 -15 39 -2 40 -45 109 -85 137 -43 30 -57 32 -95 16z m42 -169 c10 -13 19 -40 20 -59 3 -29 -1 -36 -27 -49 -29 -14 -104 -44 -155 -61 -14 -5 -50 -18 -80 -30 -107 -42 -119 -39 -140 36 -12 41 -11 46 6 59 10 8 33 19 49 24 17 5 55 19 85 31 30 12 66 25 80 30 14 5 48 17 75 28 59 24 63 23 87 -9z"/> <path d="M1346 8828 c-3 -7 -6 -22 -9 -33 -3 -11 -11 -35 -18 -52 l-13 -33 112 -113 c62 -63 112 -119 112 -125 0 -13 -20 -18 -90 -25 -74 -8 -193 -29 -217 -38 -13 -5 -25 -20 -28 -36 -4 -15 -12 -42 -20 -59 -16 -38 -12 -44 31 -44 18 0 48 -6 66 -14 41 -17 93 -35 133 -46 51 -14 188 -61 223 -76 18 -8 39 -14 47 -14 19 0 85 -30 108 -49 9 -8 20 -11 24 -7 12 12 35 80 40 120 5 38 5 39 -21 32 -15 -4 -36 -1 -48 5 -13 7 -36 16 -53 20 -70 18 -200 68 -198 75 2 11 163 43 218 44 89 1 84 19 -39 138 -76 73 -99 102 -81 102 21 0 256 -86 278 -102 35 -24 54 -18 62 19 4 15 13 43 21 61 21 50 19 65 -11 58 -16 -4 -78 12 -187 50 -90 30 -176 59 -193 64 -40 11 -92 29 -133 46 -18 8 -39 14 -46 14 -8 0 -16 7 -20 15 -7 18 -45 20 -50 3z"/> <path d="M12216 8472 c-6 -10 -65 -29 -206 -67 -36 -9 -85 -23 -110 -30 -25 -8 -74 -21 -110 -30 -36 -10 -84 -23 -106 -30 -23 -7 -47 -9 -55 -5 -19 13 -29 2 -29 -31 0 -32 22 -93 37 -102 5 -3 39 1 75 10 l66 16 45 -33 c25 -18 49 -40 52 -49 9 -23 -26 -47 -85 -60 -28 -6 -66 -18 -86 -26 -31 -13 -35 -18 -29 -37 3 -13 10 -40 15 -61 10 -50 16 -54 48 -35 27 16 145 53 205 65 15 3 33 14 41 24 10 15 20 18 45 13 30 -6 71 2 203 43 42 13 50 20 68 60 24 54 26 111 6 173 -23 75 -45 154 -48 175 -3 21 -32 33 -42 17z m-39 -226 c8 -26 12 -55 9 -62 -6 -17 -36 -29 -88 -37 -33 -5 -43 -1 -88 36 -64 54 -65 72 -2 86 26 5 58 14 72 20 14 6 38 9 54 8 26 -2 31 -8 43 -51z"/> <path d="M12350 7956 c-14 -14 -53 -22 -270 -61 -41 -7 -115 -21 -163 -30 -48 -9 -111 -15 -139 -14 -37 2 -53 -1 -56 -11 -4 -12 7 -83 43 -280 8 -41 17 -92 20 -112 7 -43 17 -46 105 -27 53 11 60 21 34 50 -9 10 -19 46 -24 81 -4 35 -14 85 -20 111 -7 28 -9 52 -4 56 9 7 82 22 284 56 52 9 118 21 147 26 37 7 58 7 73 -1 16 -9 22 -8 26 5 13 33 -16 165 -35 165 -4 0 -13 -6 -21 -14z"/> <path d="M1060 7781 c-6 -21 -14 -72 -20 -113 -5 -41 -13 -94 -19 -118 -8 -40 -15 -108 -12 -135 1 -6 36 -11 82 -11 45 -1 118 -9 162 -17 103 -20 213 -37 300 -47 39 -4 76 -15 86 -24 25 -22 35 -8 50 71 12 61 4 111 -13 84 -9 -14 -57 -14 -132 0 -88 17 -90 21 -66 125 11 49 19 91 16 95 -2 3 -25 9 -51 12 -26 4 -58 9 -70 13 -20 5 -22 3 -21 -22 1 -48 -14 -158 -24 -171 -7 -9 -29 -11 -72 -6 -82 8 -96 16 -96 58 0 47 28 176 42 192 15 19 0 32 -48 44 -72 16 -82 13 -94 -30z"/> <path d="M12433 7389 c-7 -7 -72 -15 -160 -20 -81 -4 -195 -13 -253 -20 -57 -6 -128 -9 -157 -6 -29 3 -55 2 -57 -1 -2 -4 0 -68 4 -143 9 -146 17 -172 68 -227 l30 -32 104 5 c107 6 420 34 424 38 1 1 16 27 34 57 l33 55 -7 110 c-4 61 -11 128 -14 150 -8 41 -28 55 -49 34z m-85 -151 c17 -21 25 -95 12 -117 -8 -16 -20 -21 -54 -21 -24 0 -108 -7 -187 -16 -164 -18 -162 -19 -174 62 -9 64 2 74 89 75 56 1 266 20 297 28 4 0 11 -5 17 -11z"/> <path d="M1013 7236 c-31 -43 -32 -47 -34 -157 -1 -101 1 -118 20 -151 25 -42 23 -41 226 -58 104 -8 307 -15 356 -11 9 0 28 18 42 39 22 31 28 55 36 142 10 103 9 105 -17 153 -14 27 -31 51 -37 53 -25 8 -385 34 -468 34 l-92 -1 -32 -43z m375 -103 c108 -5 124 -9 133 -26 15 -27 2 -105 -19 -115 -10 -5 -96 -2 -200 7 -203 18 -206 19 -196 86 10 63 19 68 94 61 36 -3 120 -9 188 -13z"/> <path d="M11873 6563 c-38 -41 -50 -78 -57 -179 -7 -82 -5 -95 15 -133 11 -23 30 -46 41 -52 11 -6 77 -15 146 -20 70 -5 187 -14 261 -20 148 -11 144 -12 193 55 27 37 28 44 28 149 0 94 -3 115 -21 143 -28 47 -46 54 -131 54 -40 0 -136 7 -213 15 -208 21 -231 20 -262 -12z m310 -123 c96 -5 164 -13 172 -20 17 -14 20 -82 5 -111 -13 -23 -45 -24 -235 -8 -166 13 -175 17 -175 69 0 56 15 80 48 80 15 -1 98 -5 185 -10z"/> <path d="M1345 6485 c-55 -7 -136 -14 -180 -14 -44 -1 -91 -7 -104 -14 -13 -6 -37 -37 -54 -67 l-30 -55 15 -148 c9 -82 19 -151 22 -154 3 -3 12 -1 20 6 16 13 230 41 326 41 36 1 110 7 165 14 68 9 105 10 116 3 21 -13 50 -2 44 16 -3 7 -9 72 -13 144 l-8 131 -42 56 -43 56 -67 -1 c-37 -1 -112 -7 -167 -14z m179 -137 c19 -27 22 -118 4 -118 -7 0 -69 -7 -139 -15 -70 -9 -158 -15 -195 -13 l-69 3 -3 56 c-2 39 1 59 11 68 9 7 81 16 178 21 89 6 165 12 167 15 12 11 32 4 46 -17z"/> <path d="M11800 6120 c-6 -11 -13 -49 -17 -83 l-6 -63 59 0 c73 0 163 -14 170 -26 6 -10 -13 -130 -26 -165 -11 -28 1 -38 68 -52 61 -13 74 -9 70 22 -4 38 25 169 39 174 20 8 141 -17 153 -32 13 -16 -14 -174 -37 -218 -9 -16 -11 -32 -7 -37 5 -4 38 -10 73 -12 l65 -3 18 100 c42 227 48 261 48 288 0 28 -17 36 -37 16 -9 -9 -33 -8 -95 4 -46 9 -128 23 -183 32 -55 8 -136 22 -180 30 -44 8 -90 15 -101 15 -12 0 -27 7 -34 15 -17 20 -27 19 -40 -5z"/> <path d="M1600 6023 c-47 -6 -55 -16 -37 -50 27 -51 58 -245 41 -256 -5 -3 -38 -11 -74 -17 -106 -19 -201 -38 -270 -52 -36 -7 -91 -13 -122 -14 -32 0 -60 -3 -63 -5 -6 -7 28 -146 38 -155 4 -4 15 1 26 10 10 9 45 21 77 26 33 5 86 14 119 20 33 6 95 18 138 26 42 8 112 21 155 29 42 9 91 14 107 13 l30 -3 -3 50 c-2 28 -9 82 -17 120 -8 39 -21 108 -31 155 -9 47 -18 91 -20 98 -3 12 -24 13 -94 5z"/> <path d="M1765 5558 c-8 -21 -156 -78 -202 -78 -11 0 -33 -12 -48 -26 -18 -16 -33 -23 -44 -18 -23 10 -38 8 -116 -15 -38 -12 -83 -24 -100 -27 -38 -8 -65 -32 -65 -56 0 -10 -7 -33 -16 -50 -15 -29 -15 -36 1 -92 9 -34 23 -79 31 -101 8 -23 14 -49 14 -58 0 -15 24 -72 36 -86 2 -2 17 8 34 23 17 14 42 26 55 26 13 0 36 5 52 11 15 6 44 15 63 20 19 4 58 15 85 23 254 73 273 78 318 77 20 -1 37 1 37 3 0 12 -30 117 -36 127 -7 12 -46 8 -110 -12 -39 -12 -42 -11 -93 27 -69 52 -66 71 14 96 149 46 140 41 138 68 -2 31 -26 117 -36 126 -3 4 -9 0 -12 -8z m-281 -304 c57 -47 66 -62 44 -68 -7 -1 -35 -10 -63 -19 -70 -22 -118 -29 -132 -19 -15 9 -33 96 -24 110 8 14 71 40 97 41 12 1 47 -20 78 -45z"/> <path d="M11660 5386 c0 -1 -11 -34 -25 -72 -32 -88 -32 -98 0 -90 16 4 72 -9 162 -40 76 -25 140 -48 143 -51 15 -14 -74 -34 -212 -48 -85 -9 -83 -23 22 -128 49 -49 90 -94 90 -100 0 -14 -42 -3 -155 38 -55 20 -108 39 -117 42 -9 3 -19 11 -22 19 -15 40 -40 4 -66 -95 -5 -18 -33 -84 -63 -145 -125 -254 -145 -301 -136 -313 14 -16 120 -65 127 -58 4 3 7 20 8 38 1 18 19 69 40 114 34 73 42 83 65 83 15 0 38 -9 52 -20 l26 -21 -45 -89 c-45 -89 -48 -110 -16 -110 9 0 26 -7 36 -15 32 -24 65 -19 76 13 5 15 16 40 25 55 8 16 15 34 15 40 0 6 10 21 21 34 20 20 24 21 48 8 14 -7 45 -22 68 -32 29 -12 43 -24 43 -37 0 -25 -74 -179 -94 -196 -26 -21 -18 -38 28 -59 87 -38 82 -39 117 36 56 122 101 217 116 248 18 36 14 70 -7 71 -25 1 -61 14 -160 61 -52 25 -131 62 -175 83 -44 21 -110 52 -146 68 -67 31 -83 49 -73 77 8 20 40 19 110 -6 32 -11 73 -24 89 -29 17 -5 75 -25 130 -45 55 -20 114 -40 130 -45 74 -21 121 -42 137 -60 23 -29 31 -25 50 23 39 95 41 91 -76 211 -58 60 -106 115 -106 122 0 15 33 23 135 34 44 5 103 14 130 20 46 10 51 14 68 54 10 24 19 56 20 71 2 27 0 28 -44 30 -25 1 -56 8 -69 15 -14 7 -38 17 -55 21 -16 4 -75 24 -130 44 -55 20 -113 40 -130 44 -16 5 -41 13 -55 19 -14 6 -37 13 -52 16 -14 3 -40 17 -56 31 -27 23 -42 30 -42 21z"/> <path d="M1815 5045 c-16 -7 -48 -20 -70 -28 -85 -31 -131 -49 -160 -62 -16 -7 -48 -19 -70 -28 -22 -8 -58 -22 -80 -30 -22 -9 -50 -19 -62 -22 -34 -9 -61 -103 -44 -153 40 -120 73 -180 113 -206 46 -30 55 -31 100 -12 18 8 58 24 88 36 30 11 64 25 75 29 11 5 38 15 60 24 94 35 132 50 163 63 18 8 39 14 48 14 18 0 53 74 54 112 0 15 -6 42 -14 60 -8 18 -22 53 -31 78 -26 68 -29 73 -74 108 -47 35 -53 37 -96 17z m45 -176 c23 -45 23 -88 0 -99 -17 -9 -93 -38 -225 -87 -22 -8 -54 -22 -72 -30 -43 -21 -58 -13 -83 43 -23 54 -21 70 12 83 46 18 114 44 148 56 19 7 69 27 110 44 41 17 78 31 82 31 4 0 17 -18 28 -41z"/> <path d="M2049 4637 c-9 -12 -91 -60 -183 -107 -91 -47 -203 -104 -248 -127 -46 -24 -96 -43 -111 -43 -25 0 -27 -3 -21 -22 6 -21 61 -126 71 -138 2 -2 14 8 26 22 12 15 67 50 121 78 55 29 107 57 117 63 13 8 22 8 29 1 7 -7 -14 -42 -66 -112 -48 -65 -74 -108 -70 -118 5 -13 24 -14 139 -8 134 7 164 1 133 -25 -36 -30 -249 -131 -276 -131 -17 0 -30 -2 -30 -5 0 -14 62 -135 75 -145 16 -13 35 -6 35 15 0 7 30 29 68 47 37 19 151 78 255 131 114 59 199 97 217 97 17 0 30 5 30 10 0 6 -15 37 -32 70 l-33 60 -158 0 c-128 0 -159 3 -163 14 -3 8 12 39 33 68 22 29 63 86 92 127 l52 73 -32 64 c-18 35 -38 64 -44 64 -5 0 -17 -11 -26 -23z"/> <path d="M11232 4330 c-12 -16 -22 -33 -22 -38 0 -5 -7 -15 -15 -22 -27 -23 -17 -47 33 -77 26 -16 54 -33 62 -37 17 -8 36 -19 95 -57 22 -14 48 -28 58 -32 18 -7 23 -22 10 -30 -5 -3 -91 -1 -192 4 -182 9 -185 9 -208 -13 -13 -12 -23 -27 -23 -34 0 -6 -7 -17 -15 -24 -24 -20 -19 -50 9 -50 13 0 29 -7 36 -15 7 -8 16 -15 20 -15 15 0 425 -250 452 -275 14 -14 33 -25 41 -25 14 0 67 87 67 110 0 9 -53 47 -116 81 -80 44 -158 96 -162 108 -4 12 89 11 313 -4 39 -3 75 -2 81 3 9 6 74 108 74 116 0 2 -13 6 -28 9 -40 8 -532 306 -532 322 0 26 -17 24 -38 -5z"/> <path d="M3927 2438 c-6 -40 -280 -504 -308 -521 -24 -15 -25 -33 -1 -41 9 -3 35 -17 57 -30 22 -14 43 -25 46 -26 4 0 35 48 70 107 35 59 69 116 76 128 7 11 17 30 23 43 6 14 15 20 21 16 12 -7 9 -103 -7 -320 l-7 -81 60 -36 c34 -21 66 -37 72 -37 6 0 11 13 11 29 0 34 270 494 308 524 12 10 22 22 22 27 0 5 -25 23 -56 41 -39 22 -61 29 -71 23 -13 -8 -54 -72 -83 -129 -10 -21 -15 -28 -69 -113 -41 -65 -52 -55 -40 38 4 36 11 124 15 197 l7 132 -24 11 c-13 6 -37 19 -54 29 -45 29 -62 26 -68 -11z"/> <path d="M9305 2337 c-10 -7 -36 -22 -57 -35 l-38 -22 0 -148 c0 -150 -7 -186 -33 -167 -8 6 -51 37 -96 70 -46 33 -97 70 -116 83 l-33 23 -66 -31 c-36 -17 -66 -33 -66 -34 0 -2 11 -16 25 -32 14 -16 50 -76 79 -134 30 -58 86 -167 125 -244 39 -76 71 -149 71 -162 0 -35 12 -36 80 -2 70 36 82 53 52 77 -18 14 -142 243 -142 263 0 18 23 5 119 -67 56 -41 108 -75 116 -75 13 0 15 21 15 124 0 121 4 156 20 156 13 0 140 -268 134 -283 -3 -8 -1 -18 4 -21 11 -6 152 62 152 74 0 3 -11 17 -25 30 -13 12 -56 86 -96 164 -39 77 -95 188 -125 246 -30 58 -54 117 -54 133 0 29 -13 33 -45 14z"/> <path d="M4391 2144 c-32 -70 -31 -77 9 -84 19 -4 60 -19 91 -33 31 -15 60 -27 64 -27 5 0 19 -10 31 -21 l23 -22 -20 -38 c-11 -22 -25 -39 -32 -39 -15 0 -139 61 -160 79 -13 11 -18 8 -34 -21 -50 -94 -54 -118 -17 -118 22 0 138 -51 156 -68 4 -4 -4 -29 -18 -57 -13 -27 -24 -56 -24 -63 0 -7 -11 -17 -24 -23 -20 -9 -37 -5 -110 31 -48 22 -92 50 -99 61 -6 10 -16 19 -22 19 -9 0 -65 -110 -65 -128 0 -9 33 -26 150 -80 47 -22 115 -53 152 -71 37 -17 70 -31 73 -31 3 0 5 11 5 24 0 14 17 62 39 108 21 46 53 115 71 153 18 39 47 102 65 140 18 39 41 89 51 112 11 23 29 46 42 52 13 6 21 15 18 19 -5 8 -49 31 -161 82 -38 18 -98 45 -132 61 -86 40 -98 38 -122 -17z"/> <path d="M8635 2015 c-16 -7 -50 -21 -75 -30 -81 -31 -105 -45 -129 -80 -26 -38 -25 -82 3 -147 8 -18 22 -53 31 -78 10 -25 23 -58 30 -75 7 -16 20 -49 29 -72 30 -81 44 -118 57 -152 9 -24 24 -39 53 -52 49 -22 68 -23 109 -5 52 22 111 44 135 51 12 4 38 27 57 53 38 49 39 67 10 137 -7 16 -21 50 -30 75 -9 25 -23 59 -30 75 -7 17 -19 48 -28 70 -81 215 -78 210 -133 229 -55 19 -50 19 -89 1z m56 -162 c26 -64 51 -130 59 -153 5 -14 18 -50 31 -80 12 -30 24 -71 26 -90 4 -33 2 -37 -32 -53 -19 -9 -46 -17 -59 -17 -26 0 -32 11 -101 200 -7 19 -22 58 -34 87 -30 74 -28 89 17 112 53 29 80 27 93 -6z"/> <path d="M4822 1957 c1 -23 -6 -56 -15 -74 -10 -18 -17 -39 -17 -47 0 -9 -6 -30 -14 -48 -16 -40 -35 -93 -46 -133 -15 -53 -70 -206 -82 -228 -6 -12 -18 -27 -26 -33 -22 -16 7 -39 75 -59 l56 -16 111 110 c61 61 116 111 121 111 10 0 37 -138 51 -258 7 -60 20 -73 100 -97 65 -19 64 -20 58 13 -4 18 5 61 25 118 50 147 62 184 90 264 7 19 17 49 21 65 19 67 43 121 62 142 l21 22 -29 12 c-67 26 -134 46 -139 41 -3 -3 -5 -21 -5 -40 0 -38 -62 -232 -87 -271 -20 -31 -33 -12 -33 51 0 42 -22 170 -35 207 -4 9 -41 -21 -111 -89 -58 -56 -107 -100 -110 -98 -8 9 87 280 106 301 11 11 20 24 20 27 0 9 -124 50 -149 50 -16 0 -19 -7 -19 -43z"/> <path d="M8270 1881 c-41 -9 -80 -28 -80 -41 0 -4 7 -36 16 -70 l16 -62 -30 -41 c-16 -23 -37 -46 -46 -52 -24 -15 -50 6 -58 46 -10 50 -37 141 -43 147 -3 4 -26 1 -50 -6 -25 -7 -54 -12 -65 -12 -29 0 -34 -19 -11 -44 12 -12 21 -29 21 -37 0 -8 7 -34 15 -59 8 -25 17 -57 19 -71 3 -14 17 -42 31 -63 17 -25 23 -45 19 -61 -3 -12 2 -52 11 -87 10 -34 21 -81 27 -103 11 -51 24 -66 68 -84 51 -21 114 -19 205 8 44 13 99 28 123 33 23 5 42 15 42 21 0 7 -11 35 -25 62 -13 28 -24 59 -25 70 0 11 -6 40 -14 65 -24 76 -43 142 -61 210 -9 36 -23 85 -31 110 -8 25 -14 64 -14 88 0 45 0 45 -60 33z m9 -378 c12 -26 27 -87 38 -149 6 -35 0 -39 -69 -49 -31 -5 -47 -3 -54 7 -17 21 -36 97 -28 111 15 25 86 107 93 107 4 0 13 -12 20 -27z"/> <path d="M7715 1745 c-85 -19 -183 -37 -235 -44 -42 -6 -45 -8 -48 -38 -2 -17 2 -50 8 -72 11 -44 30 -52 56 -26 9 8 27 15 42 15 15 0 64 8 109 17 98 20 104 17 113 -59 7 -58 23 -142 47 -258 9 -41 16 -105 17 -142 0 -79 -2 -78 101 -52 66 17 75 25 52 49 -15 15 -22 44 -83 392 -8 49 -19 110 -24 136 -7 32 -6 55 0 67 6 10 10 21 10 24 0 10 -103 4 -165 -9z"/> <path d="M5994 1670 c7 -36 -10 -180 -23 -193 -6 -6 -46 -4 -107 6 -54 9 -100 14 -103 11 -3 -2 -7 -33 -9 -67 l-4 -63 98 -15 99 -14 -1 -30 c-3 -69 -18 -137 -30 -142 -22 -8 -208 29 -220 44 -21 24 -31 13 -43 -44 -18 -93 -22 -89 77 -106 213 -38 288 -49 307 -46 16 4 19 11 16 58 -1 29 4 92 13 140 8 47 23 131 31 186 33 209 38 230 53 248 9 10 12 21 6 26 -13 12 -97 31 -135 31 -30 0 -31 -2 -25 -30z"/> <path d="M7188 1670 l-117 -7 -57 -43 -57 -43 7 -81 c3 -44 11 -146 16 -226 14 -220 13 -216 76 -256 42 -27 63 -34 101 -34 67 1 261 25 269 33 4 4 0 15 -9 25 -11 12 -17 36 -17 66 0 26 -7 106 -15 179 -8 73 -16 191 -19 262 l-3 130 -29 1 c-16 1 -82 -2 -146 -6z m41 -149 c11 -20 36 -380 27 -388 -9 -9 -96 -23 -110 -17 -8 3 -17 15 -19 27 -12 49 -28 256 -25 317 3 59 5 65 28 71 49 14 89 10 99 -10z"/> <path d="M6255 1638 l-50 -33 -2 -90 c-2 -50 -10 -168 -18 -263 -9 -95 -14 -181 -11 -190 3 -9 27 -32 54 -50 46 -31 50 -32 156 -32 93 0 114 3 142 21 19 11 39 29 44 39 5 10 14 105 20 212 5 106 13 223 16 260 7 66 7 67 -27 98 -40 36 -74 46 -189 54 -84 6 -86 6 -135 -26z m185 -115 l33 -6 -7 -146 c-9 -173 -19 -250 -34 -260 -20 -12 -102 0 -111 18 -13 23 5 369 20 387 12 15 48 18 99 7z"/> </g> </svg> 