<svg xmlns="http://www.w3.org/2000/svg" version="1.1" viewBox="-5.0 -10.0 110.0 135.0">
 <path d="m64.609 20.59c1.3906-1.1328 2.1367-2.8711 2-4.6602-0.30469-2.2109-1.6445-4.1406-3.6094-5.1992-0.42188-0.26172-1.3398-0.71875-1.7188-0.89844v-0.51172h0.92188-0.003906c0.16797 0 0.30078-0.13281 0.30078-0.30078v-2.25c0-0.16406-0.13281-0.30078-0.30078-0.30078h-24.371c-0.16406 0-0.29688 0.13672-0.29688 0.30078v2.2305c0 0.16406 0.13281 0.30078 0.29688 0.30078h1.0586v0.44922c-0.17188 0.078125-1.3516 0.64844-1.8594 1h0.003906c-1.9922 1.0391-3.3555 2.9766-3.6602 5.1992-0.14062 1.7891 0.60938 3.5312 2 4.6602 1.043 0.89844 2.3516 1.4336 3.7305 1.5195l0.14063 0.62891-0.003907 0.003907c-0.55078-0.10156-1.0781 0.26562-1.1797 0.81641-0.097656 0.55469 0.26953 1.082 0.82031 1.1836-0.007812 0.097656-0.007812 0.19922 0 0.29688v0.44141c-0.003906 0.47266 0.27734 0.90234 0.71094 1.0898v49.199c0.054687 1.7422-0.57031 3.4375-1.7383 4.7305-0.51172 0.54297-0.78906 1.2578-0.78125 2-0.011718 0.65625 0.26172 1.2852 0.75 1.7188-0.070312 0.015625-0.13672 0.054688-0.17969 0.11328l-2.3789 3.1914v-0.003907c-0.039063 0.050782-0.0625 0.10938-0.0625 0.17188v5.5586c-0.003907 0.082031 0.027343 0.16016 0.085937 0.21484 0.054688 0.058594 0.13281 0.089844 0.21484 0.085937h29c0.16406 0 0.30078-0.13281 0.30078-0.30078v-5.5977c0.011719-0.058594 0.011719-0.11719 0-0.17188l-2.4219-3.1992c-0.058594-0.074219-0.14453-0.11719-0.23828-0.12109 0.5-0.42969 0.80078-1.0508 0.82031-1.7109 0.003906-0.74219-0.27734-1.4609-0.78906-2-1.168-1.293-1.793-2.9883-1.7422-4.7305v-49.277c0.33203-0.22656 0.52734-0.60156 0.51953-1v-0.46094c0.011719-0.078125 0.011719-0.16016 0-0.23828 0.56641-0.046875 0.98828-0.53906 0.94531-1.1055s-0.53906-0.99219-1.1055-0.94531l0.14063-0.64844v-0.003906c1.3516-0.082032 2.6445-0.59766 3.6797-1.4688zm-26.48-11.871v-1.6484h23.742v1.6484zm22.531 0.60156v0.39844l-10.66 0.019531h-10.52v-0.39844zm-21.191 16.148v-0.46875c0-0.074219 0.023438-0.14844 0.0625-0.21094h20.75c0.015625 0.070313 0.015625 0.14063 0 0.21094v0.44141c0.019531 0.22266-0.089844 0.4375-0.28125 0.55859h-20c-0.27734-0.03125-0.5-0.25-0.53125-0.53125zm24.75 67.461h-28.438v-4.9297h28.438zm-0.30078-5.5586h-27.84l1.9219-2.5898h0.64844c0.35156 0.19141 0.73047 0.35938 1.1406 0.53906 1 0.42969 4.6914 0.91016 10.18 0.92969h3.6328c2.2461 0.074219 4.4922-0.23438 6.6367-0.91016 0.41016-0.13281 0.80469-0.31641 1.1719-0.53906h0.58984zm-2.2109-6.4609h0.003907c0.40625 0.41797 0.62891 0.97656 0.62891 1.5586-0.09375 0.75781-0.55859 1.418-1.2383 1.7617-0.35156 0.21875-0.72266 0.39453-1.1133 0.53125-1.5508 0.50781-3.1719 0.78125-4.8086 0.81641-1.2812 0.058594-2.9102 0.078125-5.1211 0.070313-5.7695 0-9.1211-0.53906-10-0.87891-0.35938-0.16406-0.71484-0.34766-1.0586-0.55078h-0.12109c-0.70312-0.28125-1.168-0.96094-1.1797-1.7188-0.003907-0.58203 0.21875-1.1406 0.62109-1.5586 0.28906-0.30859 0.55078-0.64453 0.78125-1 3.3633 1.332 6.957 1.9961 10.578 1.9492 3.8398-0.011719 7.6523-0.6875 11.262-2 0.22266 0.36328 0.48047 0.70703 0.76953 1.0195zm-1.1055-1.6094c-11.129 4-19.672 0.73828-21.238 0.070313h-0.003906c0.55078-1.125 0.83203-2.3594 0.82031-3.6094v-49.113h19.629v49.113c-0.007813 1.2227 0.26172 2.4336 0.79297 3.5391zm0.51172-55.531h-0.003906c0.003906 0.11719-0.042969 0.23438-0.125 0.31641-0.082031 0.085937-0.19531 0.13281-0.3125 0.13281h-21.352c-0.11719 0-0.22656-0.050781-0.30859-0.13281-0.082031-0.085938-0.125-0.19922-0.12109-0.31641-0.003906-0.11719 0.042969-0.23047 0.125-0.3125 0.082031-0.085937 0.19531-0.12891 0.3125-0.12891h21.344c0.11328 0 0.22656 0.046875 0.30859 0.12891 0.082031 0.085938 0.12891 0.19531 0.12891 0.3125zm-6-6.3281v0.26172l-10.273-0.003906v-0.26172zm-5.5352-1.4414c0-0.23047 0.19141-0.42188 0.42188-0.42188s0.42188 0.19141 0.42188 0.42188-0.19141 0.42188-0.42188 0.42188-0.42188-0.19141-0.42188-0.42188zm4.7617-1c-0.55078 0-1 0.44922-1 1 0.007812 0.33984 0.18359 0.65234 0.46875 0.82812h-1c0.29688-0.17188 0.48047-0.48438 0.49219-0.82812 0.003907-0.51172-0.38281-0.94531-0.89062-1 1.1016-0.10938 2.7305-0.37891 3.7695-0.55078-0.35938 0.42969-0.64063 0.91797-0.83984 1.4414-0.054688-0.50781-0.48828-0.89453-1-0.89062zm0.82812 1.5781h0.003906c-0.007813 0.089844-0.007813 0.17578 0 0.26172h-0.27344c0.10156-0.074219 0.19531-0.16016 0.27344-0.26172zm-0.40625-0.57812c0 0.23047-0.19141 0.42188-0.42188 0.42188-0.23047 0-0.41797-0.19141-0.41797-0.42188s0.1875-0.42188 0.41797-0.42188c0.23047 0 0.42188 0.19141 0.42188 0.42188zm-2.0625 0c0 0.23047-0.1875 0.42188-0.41797 0.42188-0.23438 0-0.42188-0.19141-0.42188-0.42188s0.1875-0.42188 0.42188-0.42188c0.23047 0 0.41797 0.19141 0.41797 0.42188zm-1.4414 0h0.003907c0.003906 0.33984 0.17969 0.65234 0.46875 0.82812h-1.1797c0.27734-0.18359 0.44922-0.49219 0.44922-0.82812 0-0.38281-0.22266-0.73438-0.57031-0.89844h1.5195c-0.39453 0.125-0.66797 0.48438-0.6875 0.89844zm3.7422 2.4297c0.078125 0.40234-0.027344 0.81641-0.28906 1.1328-0.25781 0.31641-0.64844 0.49609-1.0547 0.49609-0.41016 0-0.79688-0.17969-1.0586-0.49609-0.25781-0.31641-0.36719-0.73047-0.28906-1.1328-0.003906-0.042969-0.003906-0.085938 0-0.12891h2.6914c0.003906 0.042969 0.003906 0.085938 0 0.12891zm-3.5312 0.71094c0.074219 0.45703-0.054688 0.92188-0.35547 1.2734-0.30078 0.35547-0.74219 0.55469-1.2031 0.55469-0.46484 0-0.90234-0.19922-1.2031-0.55469-0.30078-0.35156-0.42969-0.81641-0.35547-1.2734 0-0.28906 0.066407-0.57812 0.1875-0.83984h2.7422c0.10938 0.26562 0.16406 0.55078 0.16016 0.83984zm-3.7188-0.71094c0.070312 0.39844-0.042969 0.80859-0.30078 1.1172-0.26172 0.30859-0.64453 0.48828-1.0508 0.48828-0.40234 0-0.78516-0.17969-1.0469-0.48828-0.26172-0.30859-0.37109-0.71875-0.30078-1.1172-0.003906-0.042969-0.003906-0.085938 0-0.12891h2.6719c-0.003906 0-0.003906 0.089844-0.003906 0.12891zm-2.8906-1.8594c0.070313 0.10938 0.16016 0.19922 0.26953 0.26953h-0.23828c-0.015625-0.089844-0.035156-0.17969-0.0625-0.26953zm0.41016-0.55859c0.03125-0.20703 0.20703-0.35547 0.41406-0.35547 0.20703 0 0.38281 0.14844 0.41797 0.35547 0.015626 0.12109-0.019531 0.24219-0.097656 0.33594s-0.19531 0.14844-0.32031 0.14844c-0.12109 0-0.23828-0.054688-0.31641-0.14844-0.082032-0.09375-0.11719-0.21484-0.097657-0.33594zm4.2109 0.82812h-1.2109c0.28906-0.17969 0.46484-0.49219 0.46875-0.82812 0.019531-0.45703-0.26953-0.87109-0.70703-1 0.55078 0 1 0.058593 1.5195 0-0.37109 0.18359-0.58984 0.57812-0.55078 0.98828 0 0.33984 0.16797 0.65234 0.44922 0.83984zm-1.3398-0.83984c0 0.23047-0.1875 0.42188-0.42188 0.42188-0.23047 0-0.41797-0.19141-0.41797-0.42188s0.1875-0.42188 0.41797-0.42188c0.23438 0 0.42188 0.19141 0.42188 0.42188zm-1.4414 0c0.007812 0.33984 0.18359 0.65234 0.47266 0.82812h-1c0.28125-0.17969 0.45312-0.49219 0.45703-0.82812 0.027344-0.55078-0.39844-1.0234-0.94922-1.0508-0.55078-0.027344-1.0234 0.39844-1.0508 0.94922-0.19531-0.52344-0.47656-1.0117-0.83984-1.4375 1 0.17187 2.6719 0.42969 3.7695 0.55078-0.49219 0.066406-0.85938 0.48828-0.85938 0.98828zm-0.32812 4.6211c0.57812-0.003906 1.1211-0.28906 1.457-0.76172 0.22656 0.96484 1.0625 1.6641 2.0508 1.7109 1.0859-0.046874 1.9766-0.86719 2.1211-1.9414 0.32422 0.60156 0.94531 0.98438 1.6289 1 0.92969-0.039062 1.7109-0.71484 1.8828-1.6289 0.078125 0.20703 0.17578 0.40625 0.28906 0.60156-0.25 0.64063-0.76562 1.1367-1.4141 1.3633-0.64844 0.22656-1.3633 0.15234-1.957-0.19531l-0.25-0.16016-0.17188 0.25h0.003907c-0.46094 0.74219-1.2617 1.2031-2.1328 1.2188-0.82812-0.011719-1.6016-0.43359-2.0586-1.1289l-0.16016-0.21875-0.23047 0.12109c-0.58984 0.30078-1.2773 0.33594-1.8945 0.097657-0.61719-0.23828-1.1016-0.73047-1.3359-1.3477 0.11328-0.19531 0.21094-0.39453 0.28906-0.60156 0.17188 0.91406 0.95312 1.5898 1.8828 1.6289zm1.1094 0.83984c0.58203 0.73437 1.4609 1.168 2.3984 1.1797 0.97656-0.015625 1.8867-0.48047 2.4727-1.2617 0.39063 0.20312 0.82813 0.3125 1.2695 0.3125 1.0703-0.023437 2.0508-0.61328 2.5703-1.5508 0.62109 0.79688 1.4648 1.3828 2.4297 1.6875 0.52734 0.17578 1.082 0.26953 1.6406 0.28125l-0.12891 0.60938h-20.254l-0.12891-0.60938c0.55469-0.007813 1.1016-0.097656 1.6289-0.26953 0.96484-0.30469 1.8086-0.89453 2.4297-1.6914 0.71484 1.3047 2.2891 1.875 3.6719 1.3203zm11.32-0.19922c-1.5391-0.48047-2.6875-1.7617-3-3.3398-0.24219-1.4023 0.3125-2.8164 1.4375-3.6836 0.10156-0.085937 0.13281-0.22656 0.082031-0.34766-0.046874-0.10547-0.15625-0.17188-0.26953-0.17188l-0.51172 0.078125c-1 0.17188-3.0898 0.51953-4.3086 0.62891v0.003907c-0.72656 0.078124-1.4609 0.10156-2.1914 0.070312-0.71875 0.03125-1.4414 0.007812-2.1602-0.070312-1.2305-0.10938-3.3086-0.46094-4.3203-0.62891l-0.5-0.078125v-0.003906c-0.13281-0.019531-0.26172 0.050781-0.32031 0.17188-0.054687 0.125-0.019531 0.26953 0.082031 0.35938 1.1289 0.85547 1.6797 2.2734 1.4297 3.6719-0.31641 1.5781-1.4648 2.8633-3 3.3477-1.8789 0.57422-3.9219 0.14453-5.4102-1.1406-1.2539-0.98828-1.9414-2.5352-1.8398-4.1289 0.29297-2.0273 1.543-3.793 3.3594-4.7383 0.46094-0.26953 1.5312-0.78906 1.7891-0.92188h21.77c0.26172 0.12891 1.3281 0.64844 1.7695 0.92188h0.003906c1.793 0.96094 3.0234 2.7227 3.3086 4.7383 0.11719 1.5977-0.5625 3.1523-1.8086 4.1602-1.4883 1.2695-3.5234 1.6875-5.3906 1.1094zm5-8c-0.98828-1.4414-2.5898-2.3359-4.332-2.4219h-9.6016-9.2617 0.003906c-1.7422 0.097656-3.3398 0.99609-4.3281 2.4297-0.98047 1.2383-1.293 2.8789-0.83984 4.3906 0.48047 1.4609 1.7383 2.5312 3.2578 2.7695 1.5078 0.32422 3.0742-0.17578 4.1094-1.3203 0.78906-0.93359 0.92969-2.25 0.36328-3.3281-0.47656-1.0117-1.4844-1.6602-2.6016-1.6719-0.63672 0.015625-1.2344 0.30859-1.6406 0.80078-0.34375 0.46094-0.48047 1.043-0.37891 1.6094 0.078125 0.41016 0.31641 0.76953 0.66016 1 0.085937 0.039063 0.18359 0.039063 0.26953 0 0.085937-0.039062 0.14844-0.11719 0.16797-0.21094 0 0 0.19922-0.78125 0.83984-0.82031 0.28906-0.03125 0.57031 0.10547 0.72266 0.35156 0.20703 0.38672 0.20703 0.85156 0 1.2383-0.27344 0.44141-0.76563 0.69922-1.2812 0.66016-0.92188 0.10938-1.8047-0.41016-2.1602-1.2695-0.41406-1.1641-0.16406-2.4609 0.65234-3.3906 1.3008-1.2188 3.2812-1 5.7812-0.82031l1.1211 0.10156c0.92969 0.089844 1.9492 0.12109 2.9414 0.14844h0.089844 2.2109 0.58984c1.4492 0 2.6094-0.078124 3.5391-0.16016l1.1406-0.10156c2.4883-0.21875 4.4688-0.39844 5.7617 0.82031l-0.007812 0.003906c0.82031 0.92578 1.0781 2.2227 0.67188 3.3906-0.36719 0.84766-1.2422 1.3633-2.1602 1.2695-0.51953 0.035156-1.0117-0.21875-1.2812-0.66016-0.21094-0.38672-0.21094-0.85547 0-1.2422 0.15625-0.24609 0.4375-0.38281 0.73047-0.34766 0.60938 0 0.80859 0.78906 0.80859 0.82031 0.027344 0.089844 0.09375 0.16797 0.17969 0.21094 0.085938 0.039062 0.18359 0.039062 0.26953 0 0.35156-0.23047 0.59375-0.58984 0.67188-1 0.097656-0.57031-0.042969-1.1523-0.39062-1.6133-0.40625-0.48828-1.0039-0.78125-1.6406-0.79688-1.1094 0.015626-2.1172 0.66406-2.5898 1.668-0.57031 1.0781-0.43359 2.3945 0.35156 3.332 0.80859 0.91797 1.9844 1.4297 3.2109 1.3984 0.30469-0.003906 0.60938-0.027344 0.90625-0.078125 1.5195-0.23828 2.7773-1.3086 3.25-2.7734 0.44531-1.5 0.14062-3.1211-0.81641-4.3594zm0.19922 4.2383c-0.40625 1.2539-1.4883 2.1719-2.7891 2.3711-1.293 0.28906-2.6445-0.13281-3.5391-1.1094-0.64844-0.74609-0.76172-1.8164-0.29297-2.6836 0.35547-0.75391 1.082-1.2617 1.9102-1.3398h0.10156c0.46875 0.011719 0.91016 0.21875 1.2188 0.57031 0.24609 0.32812 0.34375 0.74219 0.26953 1.1406-0.019531 0.10156-0.0625 0.19531-0.11719 0.28125-0.21875-0.46875-0.66797-0.78125-1.1836-0.83203-0.50781-0.042969-1 0.19922-1.2773 0.63281-0.32422 0.57031-0.32422 1.2695 0 1.8398 0.35938 0.64844 1.0586 1.0391 1.8008 1 1.1758 0.12109 2.293-0.55078 2.7266-1.6523 0.48438-1.3789 0.17188-2.9141-0.80859-4-1.5-1.4219-3.5898-1.2305-6.2383-1l-1.1289 0.089844c-0.92188 0.078125-2.0703 0.14062-3.5 0.16016h-0.58984-2.1914v0.30078l-0.070313-0.30078c-1 0-2-0.058594-2.9102-0.14844l-1.1094-0.089843c-2.5586-0.23828-4.75-0.44141-6.25 1-0.98047 1.0859-1.2852 2.6211-0.80078 4 0.44531 1.0898 1.5469 1.7578 2.7188 1.6484 0.74609 0.042969 1.4492-0.34375 1.8125-1 0.30078-0.58203 0.27734-1.2773-0.0625-1.8398-0.26172-0.43359-0.75391-0.67969-1.2578-0.62891-0.51562 0.042969-0.97266 0.35547-1.2031 0.82031-0.050781-0.082031-0.089843-0.17578-0.10938-0.26953-0.070312-0.40234 0.027344-0.81641 0.26953-1.1406 0.29687-0.35937 0.73437-0.57031 1.2031-0.57031 0.87109 0.023438 1.6484 0.55078 2 1.3516 0.47266 0.85938 0.35547 1.9297-0.29297 2.668-0.89062 0.97266-2.2383 1.3984-3.5273 1.1094-1.3008-0.20703-2.375-1.125-2.7812-2.3789-0.39062-1.3281-0.10938-2.7656 0.75-3.8516 0.87891-1.2773 2.3008-2.082 3.8516-2.1797h9.2617 9.6016-0.003906c1.5508 0.089844 2.9727 0.89453 3.8477 2.1797 0.83594 1.1016 1.0938 2.5312 0.69141 3.8516zm-6.3711 13.5v46c-0.003906 0.27344-0.22656 0.49609-0.5 0.5-0.27344 0-0.5-0.22266-0.5-0.5v-46c0-0.27734 0.22656-0.5 0.5-0.5 0.13281 0 0.26172 0.050781 0.35547 0.14453s0.14453 0.22266 0.14453 0.35547zm-3.5781 0v46c0 0.13281-0.054687 0.26172-0.14844 0.35547s-0.21875 0.14453-0.35156 0.14453c-0.27344-0.003906-0.49609-0.22656-0.5-0.5v-46c0-0.27734 0.22266-0.5 0.5-0.5 0.27344 0 0.5 0.22266 0.5 0.5zm-3.5703 0v46c-0.003907 0.27344-0.22656 0.49609-0.5 0.5-0.27734 0-0.5-0.22266-0.5-0.5v-46c0-0.27734 0.22266-0.5 0.5-0.5 0.27734 0 0.5 0.22266 0.5 0.5zm-3.582 0v46c0 0.13281-0.050782 0.26172-0.14453 0.35547s-0.22266 0.14453-0.35547 0.14453c-0.27344-0.003906-0.49219-0.22656-0.5-0.5v-46c0-0.27734 0.22656-0.5 0.5-0.5 0.13281 0 0.26172 0.050781 0.35547 0.14453s0.14453 0.22266 0.14453 0.35547zm-3.5703 0v46c0 0.27734-0.22266 0.5-0.5 0.5-0.27344 0-0.5-0.22266-0.5-0.5v-46c0-0.27734 0.22656-0.5 0.5-0.5 0.27734 0 0.5 0.22266 0.5 0.5z"/>
<text x="0.0" y="117.5" font-size="5.0" font-weight="bold" font-family="Arbeit Regular, Helvetica, Arial-Unicode, Arial, Sans-serif" fill="#000000">Created by dibichibi</text><text x="0.0" y="122.5" font-size="5.0" font-weight="bold" font-family="Arbeit Regular, Helvetica, Arial-Unicode, Arial, Sans-serif" fill="#000000">from Noun Project</text></svg>