<svg xmlns="http://www.w3.org/2000/svg" viewBox="0 0 128 160" x="0px" y="0px"><title>Brain</title><g><path d="M112.858,67.959c5.731-7.876,8.125-19.311-2.1-28.023-1.159-3.768-7.833-22.325-26.2-21.062A28.945,28.945,0,0,0,54.3,16.4c-3.874-.549-22.867-2.627-34.545,7.543-6.212,5.41-9.231,13.3-8.976,23.463C10.344,49,8.94,55.363,12.757,60.5c3,4.034,8.321,6.175,15.849,6.377a10.076,10.076,0,0,0,1.805,5.7c3.477,5.1,11.452,8.036,23.723,8.751a14.254,14.254,0,0,0,5.671,12.925A16.154,16.154,0,0,0,71.97,97.272c3.582-.473,6.854,1.9,9.448,6.879l3.833,7.166A6.628,6.628,0,0,0,97.529,106.6l-1.6-6.46a5.09,5.09,0,0,1,1.431-4.9l12.38-11.777a13.55,13.55,0,0,0,3.085-15.146A.35.35,0,0,1,112.858,67.959Zm-2.563-3.323c-2.81-3.237-8.119-8.07-14.268-7.355a24.417,24.417,0,0,0-1.7-12.124A20.091,20.091,0,0,0,92.2,41.405c4.108-2,11.7-.108,15.781,1.425C117.461,50.741,113.287,60.11,110.295,64.636ZM33.773,70.409a6.069,6.069,0,0,1-1.143-4.2c3.507-1.808,5.165-1.322,13.049,1,1.693.5,3.643,1.075,5.919,1.715a23.426,23.426,0,0,0,6.374.852c12.453,0,24.019-8.852,24.584-9.29A2,2,0,0,0,80.1,57.325a49.623,49.623,0,0,1-13.767,7.054c-3.2-1.591-6.545-4.13-6.513-6.1.023-1.409,1.98-3.081,5.37-4.587a2,2,0,0,0-1.624-3.656A19.917,19.917,0,0,0,58.6,53.045c-9.035-6.39-16.03-4.052-16.333-3.948a1.991,1.991,0,0,0-1.222,2.525,2.011,2.011,0,0,0,2.525,1.257c.226-.073,5.438-1.666,12.639,3.389a5.751,5.751,0,0,0-.381,1.951c-.049,3.046,2.337,5.58,4.816,7.389a20.677,20.677,0,0,1-7.96-.534c-2.258-.635-4.191-1.205-5.87-1.7-2.989-.883-5.255-1.547-7.177-1.923-2.269-6.684-7.827-12.076-8.068-12.307A2,2,0,0,0,28.8,52.033a33.12,33.12,0,0,1,6.445,9.151,13.633,13.633,0,0,0-4.88,1.7c-7.1.085-11.95-1.5-14.378-4.745a9.863,9.863,0,0,1-1.81-5.819C15.789,49.264,24.62,35.174,46.4,43.97a2,2,0,0,0,2.736-1.629c.268-2.362,1.829-9.1,5.773-11.872a7.727,7.727,0,0,1,6.566-1,2,2,0,0,0,.924-3.893A11.665,11.665,0,0,0,52.608,27.2a14.114,14.114,0,0,0-3.624,3.851A76.121,76.121,0,0,0,35.7,24.353,2,2,0,0,0,34.311,28.1a73,73,0,0,1,12.805,6.5A29.743,29.743,0,0,0,45.605,39.4c-16.023-5.6-25.776.331-30.809,5.5.263-7.735,2.8-13.76,7.576-17.925C33.705,17.091,54.1,20.415,54.3,20.451a2.011,2.011,0,0,0,1.264-.2,24.423,24.423,0,0,1,23.562-.119,21.628,21.628,0,0,0-6.711,3.521c-2.715,2.241-3.1,5.546-2.642,8.7-7.991.337-14.394,6.7-14.688,7a2,2,0,0,0,2.847,2.81C58,42.1,64,36.152,70.735,36.342c.443,1.352.932,2.544,1.3,3.434a7.07,7.07,0,0,1-.552,6.473,2,2,0,0,0,3.246,2.338,11.105,11.105,0,0,0,1.007-10.33c-1.115-2.717-3.727-9.078-.771-11.519,3.241-2.675,8.58-3.7,9.243-3.818,13.009-1.263,19.2,9.226,21.608,15.014-4.484-1.247-11.645-2.512-16.26.351-.024.015-.043.035-.066.051a18.865,18.865,0,0,0-5.848-3.755,2,2,0,0,0-1.346,3.768,16.058,16.058,0,0,1,8.367,8.4C93.241,52.7,92.5,60.426,88.473,69.7a2,2,0,1,0,3.668,1.594,52.019,52.019,0,0,0,3.227-9.8c5.426-1.575,10.667,4.121,12.765,6.8-1.744,1.181-3.452,2.388-5.062,3.623C97.415,76.254,92.74,75.084,85,73.146A106.138,106.138,0,0,0,73.165,70.7c-7-.956-14.655,4.5-17.276,6.7C41.292,76.8,35.792,73.285,33.773,70.409Zm73.211,10.147L94.6,92.334a9.1,9.1,0,0,0-2.557,8.765l1.6,6.46h0a2.628,2.628,0,0,1-4.869,1.871l-3.823-7.147a22.809,22.809,0,0,0-3.1-4.609c.753-2.522,3.478-9.89,9.748-10.515a2,2,0,0,0-.4-3.98,12.7,12.7,0,0,0-7.971,3.947,19.982,19.982,0,0,0-11.171-3.35,2,2,0,1,0,.276,3.99,15.943,15.943,0,0,1,8.434,2.542,25.405,25.405,0,0,0-2.205,4.565,10.91,10.91,0,0,0-5.741-1.657,10.7,10.7,0,0,0-1.378.089,12.167,12.167,0,0,1-9.182-2.2A10.073,10.073,0,0,1,58.33,80.574c1.661-1.357,8.619-6.691,14.29-5.909a103.03,103.03,0,0,1,11.407,2.361c7.984,2,14.29,3.576,21.479-1.935,1.367-1.048,2.811-2.074,4.283-3.085A9.541,9.541,0,0,1,106.984,80.557Z"/></g><text x="0" y="143" fill="#000000" font-size="5px" font-weight="bold" font-family="'Helvetica Neue', Helvetica, Arial-Unicode, Arial, Sans-serif">Created by denimao</text><text x="0" y="148" fill="#000000" font-size="5px" font-weight="bold" font-family="'Helvetica Neue', Helvetica, Arial-Unicode, Arial, Sans-serif">from the Noun Project</text></svg>