<svg xmlns="http://www.w3.org/2000/svg" version="1.1" viewBox="-5.0 -10.0 110.0 135.0">
 <path d="m91.051 57.531c-0.39844-0.93359-0.875-1.8281-1.4219-2.6797-0.42969-0.73047-0.82031-1.4102-1-1.8086v-0.003907c-0.64844-1.1523-1.4141-2.2344-2.2891-3.2305-0.36719-0.5-0.69922-1.0234-1-1.5703-0.43359-0.75391-0.91016-1.4805-1.4297-2.1797-0.88672-0.80469-1.9414-1.4023-3.0898-1.75-0.49219-0.18359-0.97266-0.39844-1.4414-0.63672-1.4219-0.80859-3.2695-1.7109-4.8281-2.4297-0.48828-0.58984-3-3.5898-4.4609-4.25v-0.003907c-2.7812-0.90625-5.6562-1.4883-8.5703-1.7383-2-0.35156-3.9727-0.86719-5.8906-1.5391-1.6367-0.55859-3.3047-1.0195-5-1.3828-0.69922-0.10938-1.5898-0.28906-2.5586-0.48047v0.003906c-2.5352-0.59375-5.125-0.92969-7.7305-1-3.0391 0.09375-6.0039 0.95703-8.6211 2.5078-3.4688 1.6367-7.0938 2.9258-10.82 3.8516l-0.60156 0.17187 0.003906-0.003906c-1.6133 0.41797-3.1758 1.0078-4.6602 1.7617-0.58203 0.30859-1.1836 0.57812-1.8008 0.80859-1.4492 0.50391-2.9492 0.85547-4.4688 1.0508-0.13281 0.015625-0.25391 0.082031-0.33984 0.1875-0.082031 0.10547-0.11719 0.23828-0.10156 0.37109 0.046874 0.26953 0.28906 0.45703 0.55859 0.42969 1.5898-0.21875 3.1484-0.60938 4.6523-1.1602 0.63672-0.23438 1.2578-0.51172 1.8594-0.82812 1.4297-0.72266 2.9375-1.2852 4.4883-1.6797l0.60156-0.17969c3.7852-0.94141 7.4727-2.2539 11-3.9219 2.4766-1.4883 5.293-2.3164 8.1797-2.3984 2.5273 0.082032 5.0391 0.41797 7.5 1 1 0.19922 1.8906 0.37891 2.6094 0.48828 1.6523 0.34766 3.2812 0.79688 4.8828 1.3398 1.9844 0.70312 4.0234 1.2344 6.0977 1.5898 2.7969 0.23828 5.5586 0.79297 8.2305 1.6523 0.98438 0.64453 1.875 1.4258 2.6406 2.3203l-0.80859-0.35156c-0.25781-0.10938-0.55078 0.007813-0.66016 0.26172-0.11328 0.25391 0.003906 0.54688 0.25781 0.66016 0 0 4.8711 2.0781 7.7891 3.75 0.50391 0.25781 1.0195 0.48828 1.5508 0.6875 0.98047 0.3125 1.8945 0.80469 2.6914 1.4531 0.48828 0.66406 0.94141 1.3594 1.3477 2.0781 0.33984 0.59766 0.71875 1.1719 1.1328 1.7188 0.8125 0.92578 1.5273 1.9336 2.1406 3 0.21875 0.42969 0.62109 1.1289 1.0508 1.8711 0.42578 0.73828 1.2773 2.1602 1.3477 2.3398-0.24219 0.42578-0.64062 0.73437-1.1094 0.85937-0.61328 0.20313-1.2891 0.042969-1.7422-0.41797-1.0938-1.0195-2-2.2266-2.668-3.5625-0.042969-0.097656-0.11719-0.17969-0.21094-0.23047-0.98438-0.60547-1.8438-1.3945-2.5312-2.3281-0.62891-0.89453-1.3555-1.7188-2.1602-2.4609-0.082032-0.078124-0.19531-0.12109-0.30859-0.11719-1.2891-0.007813-2.5703-0.14844-3.8281-0.42188-1.2227-0.60156-2.3164-1.4336-3.2227-2.4492-0.09375-0.09375-0.22266-0.14844-0.35547-0.14844-0.13281 0-0.25781 0.054687-0.35547 0.14844-0.09375 0.09375-0.14453 0.22266-0.14453 0.35547s0.050781 0.26172 0.14453 0.35547c0 0 0.46875 0.48828 1.0586 1h0.003906c-0.86328 0.11328-1.7305 0.14844-2.6016 0.10938-0.89844 0.023437-1.7852-0.20703-2.5586-0.67188 0.28906-0.28906 0.53125-0.62891 0.71094-1 0.11328-0.25 0.011719-0.54297-0.23047-0.66797-0.12109-0.058594-0.25781-0.070312-0.38281-0.023438-0.125 0.042969-0.23047 0.13281-0.28906 0.25391-0.87109 1.8203-4 2.5703-4.8008 2.5195-0.51172-1.0508-0.83984-1.8906-0.83984-1.9102-0.046876-0.125-0.14063-0.22656-0.26172-0.28125-0.125-0.054688-0.26172-0.058594-0.38672-0.011719-0.25391 0.10156-0.38672 0.38672-0.28906 0.64062 0.5 1.3125 1.1172 2.5781 1.8398 3.7812 0.53516 0.96484 1.2773 1.8047 2.168 2.4609 0.57031 0.35937 1.1797 0.71094 1.7891 1h0.003907c1.4023 0.64844 2.668 1.5625 3.7266 2.6875 1.6797 2.3398 3 5.3203 2 6.3516-0.34766 0.38281-0.85156 0.58984-1.3672 0.55859-1.0977-0.17188-2.0781-0.76953-2.7422-1.6602-0.44141-0.55078-0.98047-1.0234-1.5898-1.3867-0.53906-0.3125-1.0117-0.73828-1.3789-1.2422-1.1211-1.5195-4.5781-4.3789-6.7109-5-1.1094-0.29297-2.2383-0.51172-3.3789-0.66016-1.4766-0.15625-2.9336-0.49219-4.332-1-2.5742-1.4648-4.6797-3.6289-6.0781-6.2383-0.12891-0.64062-1.0898-5-3.5391-6.3203-0.24609-0.125-0.54688-0.035156-0.67969 0.21094-0.066406 0.11719-0.078125 0.25391-0.039062 0.38281 0.039062 0.12891 0.12891 0.23438 0.24609 0.29688 1.7812 0.94141 2.6914 4.1602 3 5.2891-0.80078 0.32031-2.8203 1.1406-5.8086 2.5-2.7383 1.25-4.1602 2.9492-5.8086 4.9102-0.85938 1.0469-1.7695 2.0469-2.7305 3-2.3008 2.3086-5.3008 3.6094-8.7227 5.1211-1.3516 0.60156-2.7383 1.2109-4.1992 1.9297-2.5234 1.1641-4.9492 2.5352-7.25 4.0977-0.11328 0.074219-0.19141 0.19531-0.21484 0.32813-0.023437 0.13281 0.007813 0.27344 0.085938 0.38281 0.09375 0.125 0.24219 0.19922 0.39844 0.19922 0.10937 0 0.21484-0.035157 0.30078-0.097657 2.2539-1.5234 4.625-2.8633 7.0898-4 1.4414-0.71094 2.8281-1.3203 4.1602-1.9102 3.5195-1.5508 6.5508-2.8906 9-5.2695 0.99219-0.98047 1.9258-2.0117 2.8008-3.0938 1.4102-1.9688 3.2852-3.5625 5.4609-4.6367 2.9688-1.3516 4.9609-2.1914 5.7891-2.4805 1.4844 2.6367 3.668 4.8125 6.3086 6.2891 1.4883 0.57031 3.0469 0.9375 4.6328 1.1016 1.0898 0.14453 2.1719 0.35547 3.2383 0.63672 1.8906 0.57812 5.2109 3.3281 6.2109 4.6797v0.003906c0.14062 0.19531 0.29688 0.37891 0.46875 0.54688-0.15234 0.46484-0.23828 0.95312-0.25 1.4414-0.011719 1.2734 0.42969 2.5078 1.2422 3.4883 0.22266 0.24219 0.53125 0.38281 0.85938 0.39062h0.10937c0.82813-0.089843 1.6094-1.1484 2-1.8594 0.59766 0.39844 1.2852 0.63281 2 0.69141h0.17969c0.75781 0 1.4844-0.31641 2-0.87109 1.5312-1.5781-0.089844-4.7695-1.25-6.6016v-0.078126l0.25-2.7617c0.11719 0.14844 0.24609 0.28906 0.37891 0.42188 0.69922 0.69141 1.4844 1.2852 2.3398 1.7695 0.03125 0.76172 0.23047 1.5039 0.58203 2.1797 0.43359 0.76172 0.95703 1.4727 1.5508 2.1211-0.22266 1.0664-0.10937 2.1797 0.32813 3.1797 0.33203 0.71094 0.88281 1.2969 1.5703 1.668 0.21875 0.12109 0.46094 0.17969 0.71094 0.17969 0.20703 0.003906 0.41016-0.042969 0.59766-0.12891 0.30469-0.13672 0.55078-0.375 0.70312-0.66797 0.45703 0.43359 1.0117 0.75391 1.6172 0.9375 0.39844 0.125 0.8125 0.1875 1.2305 0.19141 0.35547 0.035156 0.71484-0.0625 1-0.28125 0.35938-0.35938 0.30859-1.1406-0.070313-3.8008-0.12109-0.70312-0.20312-1.4141-0.25-2.1289-0.070312-0.79297-0.25781-1.5703-0.55859-2.3086-0.27734-0.75781-0.48828-1.5391-0.62891-2.332-0.058593-0.43359-0.14062-0.86328-0.25-1.2891 0.27734 0.22656 0.57031 0.43359 0.87891 0.62109 0.72266 1.4023 1.6836 2.6719 2.8398 3.75 0.91797 0.875 2.3203 1.0078 3.3906 0.32031 0.61719-0.40234 1.2383-1.0898 1.0898-1.6797zm-24.34 7.7891s-0.078126 0-0.17969-0.10937c-0.59375-0.78516-0.91797-1.7383-0.92188-2.7227 0.011719-0.26172 0.042969-0.51953 0.089844-0.77734l0.32812 0.21875h0.003906c0.51562 0.30859 0.97266 0.71094 1.3477 1.1797 0.20703 0.26172 0.43359 0.5 0.67969 0.71875-0.4375 0.74219-1.0586 1.4531-1.3477 1.4922zm-2.7109-13.949c0.67578-0.003906 1.3477-0.097656 2-0.28125l0.33984-0.10156c-0.050782 0.75781-0.050782 1.5156 0 2.2734l-1-0.62109c-0.51953-0.33984-0.97266-0.76953-1.3398-1.2695zm6.8516 5c-1.0156-1.0273-2.1914-1.8789-3.4805-2.5195-0.10938-1.0625-0.10938-2.1328 0-3.1914 0.054687-0.019531 0.10938-0.046875 0.16016-0.082031 0.23047-0.13672 0.30859-0.43359 0.17969-0.66797-0.13672-0.23438-0.42969-0.32031-0.67188-0.19922-0.085937 0.042968-0.17578 0.078124-0.26953 0.10937l-1 0.32031c-0.77734 0.23047-1.5977 0.28906-2.3984 0.17969-0.10938-0.17969-0.21875-0.35937-0.32031-0.55078 1.332-0.17188 2.6055-0.65625 3.7188-1.4102 0.79297 0.61328 1.7578 0.96094 2.7617 1-0.003906 0.09375 0.023438 0.1875 0.070312 0.26953 0.20703 0.28125 0.4375 0.54688 0.6875 0.79297-0.054687 0.097656-0.074218 0.21484-0.058593 0.32812 0.15625 0.89844 0.41406 1.7773 0.76953 2.6211zm8.8086 8.8789c-0.125 0.066406-0.27344 0.066406-0.39844 0-0.50781-0.26562-0.91797-0.69141-1.1602-1.2109-0.36719-0.87109-0.44531-1.8398-0.22266-2.7578 0.058594-0.17188 0.015625-0.35938-0.10938-0.49219-0.60156-0.64453-1.1328-1.3555-1.5781-2.1172-0.32422-0.61719-0.48438-1.3047-0.46094-2 0.019531-0.22266-0.11328-0.43359-0.32031-0.51172-0.89062-0.41016-1.707-0.97266-2.4102-1.6602-0.80859-0.88672-1.3828-1.9648-1.6719-3.1289 0.66406 0.50391 1.3594 0.96094 2.0938 1.3594 0.8125 0.48828 1.7109 0.82812 2.6484 1 0.10938 0.73828 0.28125 1.6602 0.51953 2.6914 0.40625 1.4688 1.2734 2.7656 2.4805 3.6992 0 0.39062 0.17969 1.3398 0.55078 3.3086 0.070312 0.34766 0.1875 0.68359 0.34766 1l-0.078125 0.44141c-0.003906 0.16406-0.09375 0.32031-0.24219 0.39844zm3.6211-4.8398c0.042969 0.76172 0.12891 1.5195 0.25781 2.2695 0.16406 0.96875 0.26563 1.9492 0.30078 2.9297-0.60938 0.039063-1.2148-0.097656-1.75-0.39062-0.78125-0.39062-1.3242-1.1367-1.4609-2-0.5-2.6914-0.55078-3.4297-0.55078-3.4414v0.003906c-0.015625-0.15234-0.09375-0.29297-0.21875-0.38281-1.0938-0.79688-1.8906-1.9375-2.2695-3.2383-0.35938-1.4883-0.60156-3.0039-0.71875-4.5312-0.003906-0.13281-0.0625-0.26172-0.16016-0.35547-0.10156-0.089844-0.23438-0.13281-0.37109-0.125-0.13281 0.007812-0.25781 0.070312-0.34375 0.16797-0.089844 0.10156-0.13281 0.23047-0.125 0.36328 0 0 0 0.39062 0.089844 1-0.69922-0.20313-1.3711-0.49219-2-0.85938-1.2305-0.63672-2.3438-1.4727-3.2891-2.4805h0.078125c0.97656 0.039062 1.9531-0.066406 2.8984-0.30859 0.48437 0.38672 1.0273 0.69141 1.6133 0.89844 1.2812 0.30078 2.5898 0.46094 3.9102 0.48047 0.66797 0.67969 1.2812 1.418 1.8281 2.1992 0.097656 0.14453 0.20703 0.28125 0.32031 0.41016 0.35547 0.94141 0.61328 1.9141 0.75781 2.9102 0.15234 0.85547 0.37891 1.6953 0.68359 2.5117 0.25391 0.63672 0.42578 1.3047 0.50781 1.9883zm-50-12.852c-0.12891 0-0.25-0.050782-0.33984-0.13672-0.097656-0.097656-0.14844-0.22266-0.14844-0.35547 0-0.13281 0.050781-0.26172 0.14844-0.35547 1.2812-1.3281 5.2188-2.5117 5.3906-2.5586l-0.003906-0.003906c0.26562-0.078126 0.53906 0.070312 0.62109 0.33203 0.039062 0.125 0.027343 0.26562-0.035157 0.38281-0.066406 0.11719-0.17578 0.20312-0.30469 0.23828-1.0586 0.32031-4 1.3594-5 2.3008v-0.003906c-0.085937 0.10937-0.21094 0.17578-0.34766 0.17969z"/>
<text x="0.0" y="117.5" font-size="5.0" font-weight="bold" font-family="Arbeit Regular, Helvetica, Arial-Unicode, Arial, Sans-serif" fill="#000000">Created by dibichibi</text><text x="0.0" y="122.5" font-size="5.0" font-weight="bold" font-family="Arbeit Regular, Helvetica, Arial-Unicode, Arial, Sans-serif" fill="#000000">from Noun Project</text></svg>