<svg xmlns="http://www.w3.org/2000/svg" viewBox="0 0 100 125" x="0px" y="0px"><title>Vaporwave_Icons</title><g data-name="palm tree"><path d="M71.39,26.74,78.04,34l-8.18-.51-1.87-1.83-4.48,6.47,3.45,3.46-2.3,11.33L59.3,44.21l-5.57,8.04H47.27c-.02.06-.04.11-.06.17-.41,1.1-.72,2.34-1.13,3.71h4.97l-8.89,12a94.58038,94.58038,0,0,1,2.91-12c.37-1.21.83-3.05,1.2-4.05a40.959,40.959,0,0,1,3.8-7.95l.37-.58,1.21,1.47-.24-8,2.57,2.27-1.57-8.17L64.18,50.24l1.7-8.33L54.52,30.56l11.49,1.55.59-3.2,3.7,3.6,5.33.33-6.39-6.97c-1.74.3-12.55,2.34-13.84,2.6,0,0,4.58-3.86,6.57-5.45l-2.39-5.48,6.15,2.98,6.21-9.92c-2-.33-7.94-.94-13.02,2.32l-.14.09c-.15.1-.31006.21-.46.32l-6.1,12.84L45.99,8.06A32.66005,32.66005,0,0,0,29.08,9.35l6.69,8.03,6.31-2.95-1.75,5.42,9.85,9.02L33.79,26.4l-5.93,5.52,20.31-2.74-13.96,8.5-1.42,9.09,8.15-4.89-1.01-5.21,3.72,2.07,7.7-8.5-3.67,7.71,3.29-.98-4.7,5.78.54.67,1.19.04-.52.75a66.401,66.401,0,0,0-4.77,8.26c-.5,1.02-1.33,2.58-1.79,3.66a94.0551,94.0551,0,0,0-4.22,14.5H25V56.13H39.94c.51-1.24,1.19-2.7,1.76-3.88H25V12.5h5.4L27.42,8.92l.65-.26A32.72262,32.72262,0,0,1,46.49,7.15l.26.06,1.82,5.29h9.2c.15-.12.31-.22.46-.32l.14-.1c6.55-4.21,14.18-2.39,14.5-2.32l.67.17L71.93,12.5h9.32Z"/><polygon points="25 78.375 25 93.75 35.644 78.375 25 78.375"/><path d="M24.88,33.34l.12-.02v-.09Z"/></g></svg>