<svg xmlns="http://www.w3.org/2000/svg" version="1.1" viewBox="-5.0 -10.0 110.0 135.0">
 <path d="m88.559 53.828h-4.8086c-2.4883 0-6.75-1.2188-10.172-2.1992-1.5859-0.49609-3.1953-0.91016-4.8281-1.2383-0.99219-0.17188-2-0.21094-3-0.10938 0.03125-0.11719 0.054688-0.23438 0.070312-0.35156 0.042969-0.26953-0.14062-0.52344-0.41016-0.57031-0.26953-0.042969-0.52344 0.14062-0.57031 0.41016-0.14062 0.80469-0.48438 1.5586-1 2.1914-0.87891 0.68359-1.832 1.2695-2.8398 1.7383-0.98047 0.49609-1.9219 1.0625-2.8203 1.6914-1.7617 1.2617-3.7344 2.1914-5.8281 2.75-1.5273 0.45703-3.1367 0.57031-4.7109 0.33984-0.57812-0.8125-1.4648-1.3477-2.4492-1.4805-0.27734 0-0.5 0.22266-0.5 0.5s0.22266 0.5 0.5 0.5c0.67969 0.13672 1.2812 0.53125 1.6797 1.1016-0.078125 0.48047-0.21484 0.95313-0.41016 1.3984-0.17969 0.35156-0.48438 0.625-0.85156 0.76953-0.63281-0.26172-1.3164-0.38281-2-0.34766-0.27734 0.015625-0.48438 0.25781-0.46484 0.53125 0.019531 0.27734 0.25781 0.48438 0.53516 0.46875 0.64062-0.019531 1.2734 0.125 1.8398 0.41797-0.019531 0.42188-0.074219 0.83984-0.16016 1.25-1.1406-0.76172-2.8203 0.14062-2.8984 0.19141-0.19141 0.11328-0.28516 0.33984-0.23047 0.55469 0.054687 0.21484 0.24609 0.36719 0.46875 0.375 0.085937 0 0.17188-0.019532 0.25-0.0625 0 0 1.4492-0.76172 2-0.10938 0.046875 0.054688 0.10547 0.10156 0.17188 0.13281 0.011718 0.21484 0.046875 0.42969 0.097656 0.63672 0.10938 0.54688 0.007812 1.1133-0.27734 1.5898-0.28516 0.46484-0.75 0.79687-1.2812 0.91016-1 0.26172-1.3984-0.30859-1.7891-1.1484-0.058594-0.10938-0.10156-0.21094-0.14844-0.28906-0.050781-0.078125-0.23047-0.85156 0.058594-4.1484v-0.003906c0.078125-0.98047 0.42188-1.9219 1-2.7188 0.48047-0.89844 0.625-1.9375 0.41016-2.9297v-0.058593c0.074219-0.25-0.050781-0.51172-0.28906-0.60938-0.23828-0.097656-0.51172 0-0.63281 0.22656-0.27344 0.62109-0.67188 1.1797-1.168 1.6406-0.48828 0.37109-1.3789 1-1.9414 1.4219-0.58203-0.71094-1.4766-1.0859-2.3906-1-0.13281 0.007813-0.25391 0.070313-0.33984 0.17188-0.082032 0.10156-0.125 0.23438-0.10938 0.36719 0.03125 0.26953 0.26953 0.46875 0.53906 0.44922 0 0 1.1914-0.078126 1.5508 0.67187l0.058594 0.070313c0.058594 0.070313 0 0 0 0.078125 0.03125 0.66406-0.13672 1.3203-0.48047 1.8906-0.39844 0.57031-0.89844 1.2383-1.2305 1.6602h0.003907c-0.48438-0.27734-1.0352-0.41016-1.5898-0.39062-0.13281 0.007813-0.25781 0.066406-0.34766 0.16797-0.085938 0.097656-0.13281 0.23047-0.125 0.36328-0.003907 0.13281 0.050781 0.26172 0.15234 0.35547 0.10156 0.089844 0.23438 0.12891 0.36719 0.11328 0.41406-0.027344 0.82031 0.10156 1.1406 0.35938 0.19141 0.9375 0.085937 1.9141-0.30078 2.7891-0.69922 1.3086-1.4805 1.4805-2.0898 1.4805-0.25-0.003906-0.49609-0.078124-0.70703-0.21094 1-1.7891 0.58984-4.4414 0.44141-5.1992h-0.003906c0.52344-0.90234 0.86328-1.8945 1-2.9297 0.17578-1.2109 0.57031-2.3789 1.1602-3.4492 1.0352-0.375 1.957-1.0078 2.6797-1.8398l1.6914-0.85156c0.48828 0.074218 0.93359 0.32031 1.2578 0.69141 0.089844 0.16406 0.25781 0.26172 0.44141 0.26172 0.085937 0 0.16797-0.023438 0.24219-0.0625 0.23828-0.13672 0.32422-0.4375 0.19922-0.67969-0.22266-0.36328-0.54688-0.65234-0.92969-0.82812l0.92969-0.51953c0.79297-0.32812 1.6172-0.57422 2.457-0.73047h0.050781l0.089844 0.058594c0.43359 0.19531 0.87891 0.36328 1.332 0.5 0.44922 1.6406 1.3242 3.1289 2.5391 4.3203 0.089844 0.089844 0.21484 0.14063 0.33984 0.14063 0.13672-0.003907 0.26562-0.0625 0.35937-0.16016 0.09375-0.09375 0.14844-0.22266 0.14844-0.35547 0-0.13281-0.054688-0.26172-0.14844-0.35547-0.9375-0.91406-1.6523-2.0391-2.0781-3.2812 1.3086 0.30859 2.6523 0.46875 4 0.47266 0.73437 0 1.4688-0.046875 2.1992-0.14062 7.4492-1 8.2383-6.1016 8.2617-6.3203 0.035156-0.27734-0.16016-0.53125-0.4375-0.56641s-0.52734 0.16016-0.5625 0.4375c0 0-0.69922 4.5898-7.3984 5.4492h-0.003907c-2.3516 0.29688-4.7383 0.085937-7-0.62109 0.69141-0.17578 1.3633-0.42578 2-0.75 0.88281-0.37109 1.6445-0.98438 2.1914-1.7695 0.11719-0.24219 0.023437-0.53125-0.21094-0.66016-0.24219-0.12109-0.53906-0.035156-0.67969 0.19922-0.45703 0.58594-1.0469 1.0508-1.7188 1.3594-1.1289 0.49609-2.3047 0.86328-3.5117 1.1016-0.94141 0.16797-1.8555 0.45312-2.7305 0.83984-1 0.60156-3.8398 2-3.8711 2-0.085937 0.039062-0.16016 0.10547-0.20703 0.19141 0 0-1 1.5703-4.8008 2.3086-1.6367 0.41406-3.3711-0.007813-4.6289-1.1289-0.53906-0.40234-0.89844-0.99609-1-1.6602 0.078126-0.62109 1.5195-1.1602 2.3906-1.4805 0.32031-0.12109 0.62109-0.23047 0.85156-0.33984h-0.003906c0.83984-0.40625 1.6484-0.88281 2.4102-1.4219l1.1914-0.80859c0.87109-0.48047 1.793-0.86328 2.75-1.1484 0.83203-0.25391 1.6406-0.58984 2.4102-1l0.12109-0.078124c0.078125-0.058594 0.17969-0.10938 0.25-0.17188h-0.003906c0.50781-0.40625 0.94141-0.89844 1.2812-1.4531 0.10938-0.17969 0.25-0.39844 0.44141-0.67969 0.96484-1.168 2.0039-2.2734 3.1094-3.3086 0.10547-0.089844 0.17188-0.21875 0.17969-0.35547 0.007812-0.14063-0.042969-0.27734-0.13672-0.375-0.097656-0.10156-0.23047-0.15625-0.37109-0.15625-0.13672 0.003906-0.26953 0.0625-0.36328 0.16797-1.1562 1.082-2.2422 2.2422-3.25 3.4688l-0.46094 0.71094c-0.27344 0.48438-0.63281 0.91406-1.0586 1.2695h-0.070313c-0.86328-0.26953-1.6523-0.73828-2.3008-1.3711-0.09375-0.10156-0.22656-0.15625-0.36328-0.15625-0.14062 0-0.27344 0.054688-0.36719 0.15625-0.09375 0.10156-0.14062 0.23828-0.13281 0.375 0.011719 0.14062 0.078125 0.26953 0.18359 0.35547 0.39844 0.36719 0.82813 0.70312 1.2812 1-1.3711-0.003906-2.7031-0.43359-3.8203-1.2305-0.78125-0.69922-1.3633-1.5938-1.6914-2.5898-0.066406-0.27734-0.34766-0.44531-0.625-0.375-0.27344 0.070312-0.44141 0.34766-0.375 0.625 0.14844 0.48437 0.35547 0.94922 0.62109 1.3789-0.89063-0.03125-1.7734-0.13281-2.6484-0.29688-1.1172-0.16797-2.1992-0.50781-3.2109-1-0.42187-0.21094-0.89844-1.6289-1.0781-2.8516h-0.003907c-0.042969-0.26953-0.29688-0.45703-0.56641-0.42188-0.27344 0.046875-0.45703 0.30078-0.42188 0.57031 0.13672 0.94922 0.41797 1.8711 0.83984 2.7305-0.58984 0.22656-1.1992 0.40234-1.8203 0.51953-0.81641 0.15625-1.6562 0.17969-2.4805 0.070312-0.85156 0-1.7109-1.5-2-2-0.11719-0.25-0.41797-0.35938-0.66797-0.23828-0.25391 0.11719-0.35938 0.41797-0.24219 0.66797 0.32031 0.65625 0.73828 1.2578 1.2422 1.7812-0.77344 0.21875-1.5625 0.375-2.3594 0.46875-1.2188 0.1875-2.4609-0.10938-3.4609-0.82812-0.37109-0.30469-0.59375-0.75391-0.60938-1.2305 0-0.85156 0.67188-1.0586 2.1484-1.1914l0.53125-0.058594c0.58203-0.097656 1.1523-0.24609 1.707-0.44141 0.42188-0.14453 0.85156-0.25 1.293-0.30859 0.69141-0.10156 1.3633-0.30078 2-0.58984 0.48828-0.19141 1.0703-0.41016 1.75-0.64062 1.1992-0.34375 2.457-0.45312 3.6992-0.32031h1.3398c0.94922 0.035156 1.8984 0.125 2.8398 0.26953 1.0273 0.19531 2.0781 0.25391 3.1211 0.17969 0.66406-0.074219 1.332-0.11328 2-0.10938 1.4141 0.027344 2.8242-0.10547 4.207-0.39062 0.58984-0.17969 1.6484-0.57813 2.8711-1.0586 2.1484-0.91797 4.375-1.6484 6.6523-2.1797 1-0.10156 2.7695-0.33984 4.4688-0.57812 1.8906-0.26953 3.8516-0.53906 4.7695-0.62109 0.89062-0.10938 1.7656-0.32813 2.6016-0.65234 1.1523-0.42969 2.3477-0.73047 3.5703-0.89844l1.7109-0.21094c2.3281-0.26953 4.7305-0.55078 8.3594-1.2812l-0.003906 0.003906c3.4727-0.63281 6.9961-0.91406 10.523-0.84375h0.32813c1.2461-0.03125 2.4883-0.17969 3.7109-0.4375 0.27734-0.058594 0.45312-0.32812 0.39453-0.60547s-0.32812-0.45312-0.60547-0.39453c-1.1523 0.23438-2.3242 0.37109-3.5 0.41016h-0.32813c-3.6094-0.046875-7.2148 0.27344-10.762 0.94922-3.5898 0.73047-6 1-8.2812 1.2695l-1.7109 0.21094h0.003906c-1.293 0.17188-2.5586 0.48828-3.7812 0.94141-0.75391 0.29688-1.543 0.50391-2.3516 0.60938-0.94922 0.070312-2.9219 0.35156-4.8281 0.62109-1.6914 0.23047-3.4414 0.48047-4.4297 0.57812-2.3711 0.52734-4.6836 1.2773-6.9102 2.2383-1.1992 0.46094-2.2383 0.85938-2.7891 1-1.3008 0.25781-2.625 0.375-3.9531 0.35156-0.72266-0.007812-1.4414 0.035157-2.1602 0.12891-0.9375 0.039062-1.875-0.027344-2.7969-0.19922-0.99609-0.14844-1.9961-0.23828-3-0.26953h-1.3008c-1.3672-0.13672-2.7461-0.007813-4.0625 0.37891-0.69141 0.23047-1.2812 0.44922-1.7891 0.64844v0.003907c-0.53516 0.23828-1.0938 0.41016-1.668 0.51953-0.52734 0.0625-1.0469 0.1875-1.543 0.37891-0.50391 0.17188-1.0234 0.30469-1.5469 0.39844l-0.48047 0.050781c-1.1016 0.10156-3.1406 0.28125-3.0586 2.2305h-0.003906c0.042968 0.75781 0.40625 1.4609 1 1.9297 1.2344 0.88672 2.7734 1.2422 4.2734 0.98047 1.1055-0.10938 2.1953-0.35938 3.2383-0.75 1.0898 0.20703 2.2109 0.20703 3.3008 0 0.78516-0.14453 1.5547-0.37891 2.2891-0.69922 1.1289 0.58984 2.3438 0.99609 3.6016 1.1992 0.94531 0.17969 1.9062 0.28125 2.8672 0.30859 0.11719 0.011718 0.23438 0.011718 0.35156 0 0.0625-0.003906 0.125-0.027344 0.17969-0.058594 0.23047 0.28125 0.47656 0.54688 0.73828 0.80078 0.9375 0.75391 2.0664 1.2266 3.2617 1.3594-0.82031 0.24609-1.6133 0.58203-2.3594 1-0.42969 0.26953-0.80859 0.53125-1.1719 0.76953-0.71094 0.51172-1.4648 0.96484-2.25 1.3594-0.21875 0.10156-0.48828 0.19922-0.78906 0.30859-1.2891 0.48047-2.8789 1.0703-3 2.3008 0.03125 0.98437 0.49219 1.9062 1.2617 2.5234 0.44531 0.40234 0.95312 0.73828 1.5 1-0.070312 0.39062-0.19922 1-0.39844 1.8516l-0.003907-0.003907c-0.28516 1.3125-0.39844 2.6562-0.33984 4 0 0.89062 0.12891 2.1914 0.25 3.3516 0.089843 0.91016 0.17188 1.7695 0.17188 2.2109v-0.003906c-0.023438 0.53906 0.27734 1.043 0.75781 1.2812 0.23828 0.11719 0.49609 0.17578 0.76172 0.17188 0.73047-0.035156 1.4297-0.30078 2-0.76172l0.26172-0.23047h-0.003906c0.39062 0.26953 0.84766 0.41406 1.3203 0.42188 1.3125 0 2.4961-0.78906 3-2 0.48047-1.0508 0.625-2.2227 0.42188-3.3594 0.28125-0.37109 0.94141-1.2188 1.4492-2 0.42969-0.66797 0.66016-1.4453 0.66016-2.2422 0.48047-0.35156 1.6484-1.1992 2.2383-1.6484 0.22266-0.16406 0.41797-0.35547 0.58203-0.57031-0.023437 0.32422-0.125 0.64062-0.30078 0.91797-0.66797 0.94922-1.0742 2.0547-1.168 3.2109-0.23828 2.8203-0.23047 4.1797 0.058594 4.7109 0 0.070312 0.078125 0.16016 0.12109 0.25 0.30078 1 1.1875 1.7109 2.2305 1.7891 1.0625-0.015625 2.043-0.57031 2.6094-1.4688 0.38281-0.70312 0.49219-1.5234 0.30859-2.3008-0.070313-0.24219-0.097657-0.49609-0.070313-0.75 0.054687-0.050781 0.097656-0.11719 0.12109-0.19141 0.18359-0.71875 0.27734-1.457 0.28125-2.1992 0.37109-0.24609 0.66797-0.59375 0.85938-1 0.1875-0.44141 0.32812-0.89844 0.42969-1.3711 1.6367 0.19531 3.293 0.050781 4.8711-0.42969 2.2031-0.58203 4.2812-1.5625 6.1289-2.8984 0.85938-0.59766 1.7578-1.1367 2.6875-1.6094 1.0781-0.51953 2.082-1.168 3-1.9297 0.34375-0.37109 0.625-0.79297 0.83984-1.25 0.070313-0.003906 0.14062-0.027344 0.20312-0.0625 0 0 0.69141-0.28906 3 0 1.582 0.3125 3.1484 0.71094 4.6875 1.2031 3.4883 1 7.8203 2.2383 10.449 2.2383h4.8125c0.13281 0 0.25781-0.050781 0.35156-0.14453s0.14844-0.22266 0.14844-0.35547c-0.03125-0.21875-0.20312-0.38672-0.42188-0.42188zm-58.5 15.441c-0.14453-0.070312-0.23047-0.22656-0.20703-0.39062 0-0.48828-0.078124-1.3281-0.17969-2.3086-0.10156-0.98047-0.23828-2.4102-0.23828-3.25h-0.003906c-0.0625-1.2734 0.046874-2.5469 0.32031-3.7891 0.17969-0.73828 0.30078-1.3398 0.37891-1.75 0.51562 0.13281 1.043 0.19922 1.5703 0.19922 0.49609 0 0.98828-0.050781 1.4727-0.15234 0.48047-0.089844 0.91016-0.19922 1.3086-0.30859-0.42188 0.87891-0.71484 1.8086-0.87109 2.7695-0.09375 0.79688-0.32422 1.5703-0.67969 2.2891-0.53516-0.19531-1.1016-0.27734-1.668-0.25-0.13281 0.007813-0.25781 0.070313-0.34766 0.16797-0.085937 0.10156-0.13281 0.23047-0.125 0.36328-0.003906 0.13672 0.050782 0.26562 0.15234 0.35547 0.10156 0.089844 0.23438 0.13281 0.36719 0.11328 0.46875-0.019531 0.93359 0.0625 1.3633 0.24219 0.25 1.25 0.48047 4.1406-0.92969 5.1914-0.74219 0.55859-1.3828 0.66016-1.6836 0.50781zm29.512-28.699c0.15234 0.71875 0.44922 1.3984 0.87109 2 0.53516 0.74219 0.87891 1.6094 1 2.5195 0 0.13281-0.054687 0.26172-0.14844 0.35547s-0.21875 0.14453-0.35156 0.14453c-0.27734 0-0.5-0.22266-0.5-0.5-0.15234-0.71875-0.44922-1.3984-0.87109-2-0.53906-0.75781-0.88281-1.6367-1-2.5586 0-0.27734 0.22266-0.5 0.5-0.5 0.14063-0.003906 0.27734 0.050781 0.37109 0.15625 0.097656 0.10156 0.14453 0.24219 0.12891 0.38281zm10.781 5.6094c-2.1094 0.074218-4.1992 0.41016-6.2227 1h-0.16016c-0.27344 0.042968-0.53125-0.14844-0.57422-0.42578-0.039062-0.27344 0.14844-0.53125 0.42578-0.57422 2.1094-0.61328 4.293-0.94922 6.4883-1 0.27734 0 0.5 0.22266 0.5 0.5 0 0.27734-0.22266 0.5-0.5 0.5zm-0.71094 1.1016c0.27344 0.007812 0.48438 0.23828 0.48047 0.50781 0.003906 0.13672-0.050782 0.26563-0.14844 0.35938-0.097656 0.089843-0.22656 0.14062-0.36328 0.13281-1.6836 0.050781-3.3594 0.27344-5 0.66797h-0.10938c-0.27734 0.035156-0.52734-0.16406-0.55859-0.4375-0.035156-0.27734 0.16406-0.52734 0.4375-0.5625 1.7266-0.39844 3.4883-0.625 5.2617-0.66797z"/>
<text x="0.0" y="117.5" font-size="5.0" font-weight="bold" font-family="Arbeit Regular, Helvetica, Arial-Unicode, Arial, Sans-serif" fill="#000000">Created by dibichibi</text><text x="0.0" y="122.5" font-size="5.0" font-weight="bold" font-family="Arbeit Regular, Helvetica, Arial-Unicode, Arial, Sans-serif" fill="#000000">from Noun Project</text></svg>