 <svg  version="1.0" xmlns="http://www.w3.org/2000/svg"  width="300.000000pt" height="124.000000pt" viewBox="0 0 300.000000 124.000000"  preserveAspectRatio="xMidYMid meet">  <g transform="translate(0.000000,124.000000) scale(0.100000,-0.100000)" fill="#ffffff" stroke="none"> <path d="M151 1181 c-27 -25 -31 -34 -24 -58 4 -15 7 -38 8 -50 0 -28 9 -29 36 -2 17 17 19 28 13 65 -4 29 -2 49 6 59 22 27 -7 16 -39 -14z"/> <path d="M2795 1188 c-23 -21 -25 -28 -19 -75 7 -57 10 -60 39 -39 15 11 19 27 20 75 0 34 -3 61 -7 61 -4 0 -18 -10 -33 -22z"/> <path d="M1515 1158 c-24 -21 -25 -27 -19 -80 l7 -57 24 16 c22 15 25 22 21 64 -3 26 -1 54 4 63 13 23 -6 20 -37 -6z"/> <path d="M620 1132 c-18 -15 -21 -24 -15 -55 10 -53 29 -41 35 21 3 29 5 52 4 52 -1 0 -12 -8 -24 -18z"/> <path d="M679 1088 c-6 -91 -57 -162 -77 -108 -8 22 -9 22 -34 -8 -14 -17 -28 -37 -30 -43 -3 -8 -11 -10 -22 -6 -14 6 -17 16 -15 51 4 42 3 43 -17 30 -11 -8 -31 -28 -45 -46 -21 -28 -24 -44 -24 -113 -1 -84 -8 -120 -33 -170 -13 -26 -27 -79 -52 -202 -5 -23 -22 -68 -38 -99 l-28 -56 2 83 c1 50 -4 95 -12 115 -7 17 -10 34 -7 38 4 3 10 58 14 120 6 81 13 126 27 153 26 51 36 98 24 119 -6 11 -11 13 -16 5 -4 -6 -16 -11 -28 -11 -19 0 -20 5 -16 50 3 27 16 71 30 99 l24 50 -27 -15 c-16 -8 -54 -51 -86 -96 -64 -90 -83 -104 -83 -63 0 24 -2 26 -16 14 -29 -24 -44 -68 -44 -131 0 -35 -4 -77 -9 -95 -5 -17 -5 -35 -1 -39 10 -11 21 -86 20 -137 0 -20 4 -47 10 -58 17 -30 29 -121 20 -145 -7 -19 -4 -43 21 -144 4 -19 15 -67 24 -107 21 -91 33 -102 106 -94 76 9 110 32 108 74 -3 36 24 95 47 104 7 3 14 12 14 20 0 9 16 38 36 65 25 33 38 64 42 93 2 25 9 42 14 39 5 -4 7 -21 4 -39 -6 -31 7 -106 38 -215 9 -30 16 -67 16 -82 0 -45 30 -67 82 -62 72 8 87 13 108 36 14 16 19 30 15 48 -4 18 2 36 19 60 14 19 34 51 45 70 11 19 31 50 45 69 16 22 26 48 26 69 0 49 75 221 121 276 21 27 39 56 39 66 0 11 14 44 31 75 30 55 31 58 24 148 -6 88 -6 94 19 130 l26 37 -39 -19 c-55 -28 -91 -75 -91 -117 0 -42 -13 -70 -41 -84 -25 -14 -49 2 -49 32 0 19 -1 19 -37 -3 -49 -29 -53 -36 -53 -85 0 -27 -14 -71 -39 -125 -21 -46 -41 -104 -44 -129 -8 -62 -39 -167 -64 -215 l-21 -40 -1 40 c-2 53 -2 82 1 92 2 4 -3 27 -11 51 -11 33 -12 48 -3 67 7 14 12 68 12 119 0 69 4 97 14 106 8 6 23 31 32 56 20 53 15 114 -20 224 l-23 75 -4 -67z"/> <path d="M955 1128 c-24 -21 -25 -27 -19 -81 7 -56 7 -57 28 -44 17 12 22 28 26 81 3 36 2 66 -2 66 -4 0 -19 -10 -33 -22z"/> <path d="M2915 1122 c-16 -11 -54 -53 -84 -95 -60 -85 -81 -101 -81 -60 0 26 0 26 -21 7 -31 -28 -45 -62 -52 -122 -4 -34 -15 -64 -32 -86 -14 -18 -25 -43 -25 -55 0 -12 -9 -39 -19 -59 -11 -20 -24 -55 -30 -77 -29 -111 -101 -145 -101 -48 0 13 14 55 30 93 19 44 30 85 30 115 l0 47 -36 -32 c-67 -59 -110 -18 -60 57 25 37 26 42 20 138 -7 100 -6 101 22 134 l28 33 -43 -22 c-66 -33 -91 -65 -91 -116 0 -35 -5 -47 -31 -68 -24 -21 -34 -24 -45 -15 -8 6 -14 20 -14 30 0 24 -1 24 -45 -2 -40 -24 -55 -46 -55 -81 0 -15 -11 -30 -30 -43 -35 -23 -64 -71 -49 -81 6 -3 7 -13 4 -23 -4 -9 -8 -81 -10 -159 -2 -79 -8 -149 -14 -155 -5 -7 -8 -83 -6 -181 4 -198 7 -206 73 -179 52 22 69 59 78 168 3 44 13 95 20 114 8 18 14 45 14 60 0 33 10 71 19 71 4 0 17 -37 29 -83 24 -93 77 -217 92 -217 6 0 10 -9 10 -20 0 -28 42 -53 75 -44 37 9 59 46 52 89 -5 30 -2 38 19 52 19 12 24 23 21 39 -2 13 3 34 12 47 41 62 115 157 122 157 4 0 2 -17 -3 -37 -5 -21 -11 -82 -13 -135 -2 -53 -6 -106 -10 -118 -10 -33 20 -60 67 -60 52 0 105 48 88 79 -14 27 -13 51 5 85 8 15 15 37 15 48 0 10 9 37 21 60 16 31 19 51 15 80 -9 57 11 202 38 267 28 67 40 137 26 146 -5 3 -10 24 -10 45 0 38 -1 39 -29 34 -23 -5 -30 -2 -33 12 -6 30 11 95 37 142 13 23 23 42 22 42 -1 0 -15 -8 -32 -18z"/> <path d="M1684 1101 c-35 -21 -41 -29 -117 -146 -45 -68 -57 -81 -87 -87 -49 -9 -56 3 -32 53 12 24 20 45 18 47 -2 2 -19 -10 -38 -27 -24 -21 -43 -53 -61 -101 -14 -39 -42 -90 -61 -114 -21 -25 -36 -54 -36 -70 0 -27 -35 -91 -64 -115 -10 -9 -16 -29 -16 -56 0 -52 -8 -75 -25 -75 -15 0 -26 -41 -24 -85 1 -17 -3 -43 -10 -58 -26 -66 32 -178 104 -199 22 -7 49 -18 60 -24 11 -7 50 -16 86 -20 54 -5 87 -2 170 19 57 14 120 28 139 31 19 4 56 20 83 36 36 23 47 36 47 56 0 14 11 41 24 61 22 32 23 38 11 56 -10 15 -11 24 -4 33 7 9 7 19 1 30 -11 19 -4 46 28 119 l23 49 -32 26 -31 27 20 26 c15 18 19 34 15 48 -5 13 -2 25 6 29 18 11 21 30 25 145 3 70 1 93 -6 77 -14 -32 -40 -39 -57 -16 -10 14 -12 35 -7 80 7 68 -7 118 -21 73 -17 -57 -67 -76 -113 -43 -31 22 -30 77 3 109 29 30 21 32 -21 6z m-20 -409 c4 -11 0 -35 -9 -54 -24 -59 -35 -150 -20 -168 17 -20 30 -221 16 -248 -21 -40 -170 -80 -221 -59 -14 5 -37 9 -51 8 -33 -3 -73 32 -93 81 -14 35 -14 39 3 47 10 6 28 37 40 70 12 33 26 63 31 66 6 4 10 16 10 27 0 39 39 105 69 118 20 8 32 23 40 50 9 32 18 41 54 54 40 15 71 22 109 25 9 0 19 -7 22 -17z"/> </g> </svg> 